<?xml version="1.0" encoding="utf-8"?>
<!-- Generator: Adobe Illustrator 27.5.0, SVG Export Plug-In . SVG Version: 6.00 Build 0)  -->
<svg version="1.1" xmlns="http://www.w3.org/2000/svg" xmlns:xlink="http://www.w3.org/1999/xlink" x="0px" y="0px"
	 viewBox="0 0 500 500" style="enable-background:new 0 0 500 500;" xml:space="preserve">
<g id="Funnel_piece_4">
	<g id="Funnel_4_00000067236656193902083480000002953069590475951805_">
		<g id="Funnel_4">
			<path style="fill:#FF95FB;" d="M356.772,363.822h-80.447l23.664,50.779h0.003c0.524,1.157,7.734,2.074,16.555,2.074
				c8.821,0,16.031-0.917,16.555-2.074h0.003L356.772,363.822z"/>
			<g>
				<path style="fill:#FF95FB;" d="M356.856,363.473c0,2.965-18.047,5.368-40.309,5.368c-22.262,0-40.309-2.403-40.309-5.368
					c0-2.965,18.047-5.368,40.309-5.368C338.81,358.105,356.856,360.508,356.856,363.473z"/>
				<path style="fill:none;stroke:#303030;stroke-width:1.5;stroke-linecap:round;stroke-linejoin:round;stroke-miterlimit:10;" d="
					M356.856,363.473c0,2.965-18.047,5.368-40.309,5.368c-22.262,0-40.309-2.403-40.309-5.368"/>
				<path style="fill:#303030;" d="M346.565,363.473c0,1.217-13.439,2.204-30.017,2.204s-30.017-0.987-30.017-2.204
					c0-1.217,13.439-2.204,30.017-2.204S346.565,362.256,346.565,363.473z"/>
			</g>
		</g>
		<path id="Money_Sign" style="fill:#FFFFFF;" d="M324.274,394.822c-1.452-3.28-5.205-4.077-8.181-5.257
			c-0.654-0.259-1.178-0.558-1.572-0.895c-0.799-0.628-0.818-2.121,0.118-2.62c1.28-0.726,3.45-0.475,4.721,0.377
			c1.102,0.681,2.549,0.564,3.424-0.392c1.157-1.265,0.819-3.314-0.724-4.099c-1.151-0.588-2.378-0.946-3.689-1.118
			c-0.008-0.001-0.013-0.007-0.013-0.015c-0.017-0.007,0.03-3.163-0.015-3.153c0,0-4.195,0-4.195,0
			c-0.047-0.018,0.002,3.283-0.015,3.288c-0.656,0.177-1.323,0.349-1.91,0.633c-2.62,1.212-4.06,3.464-4.04,6.423
			c-0.088,4.287,3.049,6.157,6.609,7.353c0.777,0.259,1.487,0.53,2.129,0.811c1.104,0.529,2.177,1.099,2.181,2.383
			c-0.039,1.57-1.559,1.982-3.11,1.994c-1.127,0-2.146-0.236-3.059-0.71c-0.303-0.157-0.6-0.335-0.891-0.534
			c-1.079-0.737-2.528-0.604-3.439,0.332c-1.169,1.201-0.97,3.187,0.438,4.095c1.562,1,3.116,1.474,5.079,1.656
			c0.041-0.001,0,3.074,0.014,3.089c-0.004,0.046,4.195-0.001,4.21,0.015c0.009,0,0.015-0.007,0.015-0.015
			c0.012-0.015-0.024-3.266,0.013-3.267c3.86-0.659,6.565-3.153,6.511-7.265C324.883,396.715,324.68,395.679,324.274,394.822z"/>
	</g>
</g>
<g id="Funnel_piece_3">
	<g id="Funnel_3_00000063607326696175331150000006009171292403929264_">
		<g id="Funnel_3">
			<path style="fill:#303030;" d="M391.744,284.851H241.351l27.889,59.757h0.009c1.488,3.307,22.091,5.929,47.3,5.929
				c25.209,0,45.811-2.621,47.3-5.929h0.009L391.744,284.851z"/>
			<g>
				<ellipse style="fill:#303030;" cx="316.547" cy="284.239" rx="75.335" ry="10.033"/>
				<path style="fill:none;stroke:#FFFFFF;stroke-width:1.5;stroke-linecap:round;stroke-linejoin:round;stroke-miterlimit:10;" d="
					M391.882,284.239c0,5.541-33.729,10.033-75.335,10.033c-41.606,0-75.335-4.492-75.335-10.033"/>
				<g>
					<path style="fill:#FFFFFF;" d="M377.989,284.239c0,2.541-27.508,4.602-61.441,4.602s-61.441-2.06-61.441-4.602
						c0-2.541,27.508-4.602,61.441-4.602S377.989,281.698,377.989,284.239z"/>
				</g>
			</g>
		</g>
		<path id="Exclamation" style="fill:#FFFFFF;" d="M316.387,337.152c-1.242,0-2.272-0.423-3.089-1.268
			c-0.819-0.844-1.228-1.874-1.228-3.089c0-1.24,0.409-2.282,1.228-3.128c0.817-0.846,1.847-1.267,3.089-1.267
			c1.24,0,2.264,0.421,3.069,1.267c0.805,0.846,1.207,1.888,1.207,3.128c0,1.215-0.402,2.245-1.207,3.089
			C318.651,336.73,317.627,337.152,316.387,337.152z M313.273,322.607l-1.164-14.92h8.515l-1.164,14.92
			c-0.126,1.615-1.474,2.862-3.094,2.862l0,0C314.746,325.469,313.399,324.222,313.273,322.607z"/>
	</g>
</g>
<g id="Funnel_piece_2">
	<g id="Funnel_2_00000016753969038830768180000015040013180521953195_">
		<g id="Funnel_2">
			<path style="fill:#F55571;" d="M433.488,188.268H199.607l31.641,67.741h0.021c2.848,5.944,39.928,10.648,85.278,10.648
				c45.35,0,82.431-4.704,85.279-10.648h0.021L433.488,188.268z"/>
			<g>
				<ellipse style="fill:#F55571;" cx="316.547" cy="187.21" rx="117.206" ry="15.609"/>
				<path style="fill:none;stroke:#303030;stroke-width:1.5;stroke-linecap:round;stroke-linejoin:round;stroke-miterlimit:10;" d="
					M433.754,187.21c0,8.621-52.475,15.609-117.207,15.609c-64.731,0-117.206-6.988-117.206-15.609"/>
				<ellipse style="fill:#303030;" cx="316.547" cy="187.21" rx="100.637" ry="9.52"/>
			</g>
		</g>
		<g id="Magnifying_Glass_00000098929252732502568410000016139928276379024273_">
			<path style="fill:#FFFFFF;" d="M316.366,218.075c-7.15,0-12.94,5.8-12.94,12.94c0,7.15,5.79,12.94,12.94,12.94
				c7.14,0,12.94-5.79,12.94-12.94C329.306,223.875,323.507,218.075,316.366,218.075z M316.366,240.195c-5.07,0-9.18-4.11-9.18-9.18
				c0-5.07,4.11-9.17,9.18-9.17c5.06,0,9.17,4.1,9.17,9.17C325.536,236.085,321.427,240.195,316.366,240.195z"/>
			<g>
				<path style="fill:#FFFFFF;" d="M327.636,243.288c-0.256,0-0.512-0.098-0.707-0.293l-2.123-2.123
					c-0.391-0.391-0.391-1.023,0-1.414c0.391-0.391,1.023-0.391,1.414,0l2.123,2.123c0.391,0.391,0.391,1.023,0,1.414
					C328.148,243.191,327.892,243.288,327.636,243.288z"/>
			</g>
			<path style="fill:#FFFFFF;" d="M337.871,248.646l-7.803-7.803c-0.391-0.391-1.023-0.391-1.414,0l-2.464,2.464
				c-0.391,0.391-0.391,1.023,0,1.414l7.803,7.803c0.534,0.535,1.236,0.802,1.939,0.802c0.702,0,1.404-0.267,1.939-0.802
				c0.518-0.518,0.804-1.207,0.804-1.939C338.675,249.852,338.389,249.164,337.871,248.646z"/>
		</g>
	</g>
</g>
<g id="Funnel_piece_1">
	<g id="Funnel_1_00000049199496072658650210000017245280626967242121_">
		<g id="Funnel_1">
			<path style="fill:#00826F;" d="M479.865,72.269H153.27l34.406,74.14c0.036,0.096,0.085,0.191,0.133,0.287l0.001,0.003l0,0
				c4.467,8.951,60.392,16.028,128.737,16.028c68.345,0,124.27-7.077,128.737-16.028h0.009L479.865,72.269z"/>
			<g>
				<ellipse style="fill:#00826F;" cx="316.547" cy="70.908" rx="163.632" ry="21.792"/>
				<path style="fill:none;stroke:#303030;stroke-width:1.5;stroke-linecap:round;stroke-linejoin:round;stroke-miterlimit:10;" d="
					M480.179,70.908c0,12.035-73.26,21.792-163.632,21.792s-163.632-9.757-163.632-21.792"/>
				<ellipse style="fill:#303030;" cx="316.547" cy="70.908" rx="153.569" ry="15.839"/>
			</g>
		</g>
		<g id="Eye">
			<g>
				<g>
					<path style="fill:#FFFFFF;" d="M316.571,143.096c-0.01-0.001-0.02-0.001-0.026,0c-0.002,0-0.004,0-0.006,0
						c-17.762-0.016-23.181-13.148-23.233-13.281c-0.046-0.118-0.07-0.243-0.07-0.369v-0.634c0-0.126,0.024-0.251,0.07-0.369
						c0.053-0.132,5.472-13.265,23.233-13.281c0.005,0,0.012,0,0.02,0c0.005,0,0.012,0,0.019,0
						c17.762,0.016,23.181,13.149,23.233,13.281c0.046,0.118,0.07,0.243,0.07,0.369v0.634c0,0.126-0.024,0.251-0.07,0.369
						c-0.053,0.132-5.472,13.265-23.233,13.281C316.574,143.096,316.573,143.096,316.571,143.096z M295.235,129.243
						c0.666,1.505,5.809,11.848,21.323,11.853c15.508-0.005,20.653-10.341,21.322-11.853v-0.228
						c-0.666-1.505-5.809-11.848-21.322-11.853c-15.386,0.005-20.671,10.427-21.323,11.858V129.243z"/>
				</g>
				<g>
					<path style="fill:#FFFFFF;" d="M316.536,119.162c-5.33,0-9.65,4.32-9.65,9.65c0,5.33,4.32,9.65,9.65,9.65
						c5.33,0,9.65-4.32,9.65-9.65C326.187,123.482,321.866,119.162,316.536,119.162z M318.536,134.342l-1.87,1.26l-1.91-1.21
						c-2.06-1.31-4.48-3.34-4.98-5.82c-0.43-2.15,1.04-4.28,3.22-4.37c1.73-0.07,3.2,1.13,3.53,2.75c0.01,0.01,0.02,0.02,0.03,0.03
						c0.01-0.01,0.02-0.02,0.03-0.03c0.29-1.63,1.73-2.86,3.46-2.84c2.19,0.04,3.7,2.13,3.32,4.29
						C322.927,130.902,320.566,132.982,318.536,134.342z"/>
				</g>
			</g>
			<g>
				<path style="fill:#FFFFFF;" d="M316.568,113.701c-0.553,0-1-0.448-1-1v-4.723c0-0.552,0.447-1,1-1c0.553,0,1,0.448,1,1v4.723
					C317.568,113.253,317.12,113.701,316.568,113.701z"/>
			</g>
			<g>
				<path style="fill:#FFFFFF;" d="M303.785,115.897c-0.31,0-0.614-0.143-0.81-0.412l-2.776-3.821
					c-0.325-0.447-0.226-1.072,0.221-1.397c0.447-0.324,1.072-0.226,1.397,0.221l2.776,3.821c0.325,0.447,0.226,1.072-0.221,1.397
					C304.195,115.835,303.99,115.897,303.785,115.897z"/>
			</g>
			<g>
				<path style="fill:#FFFFFF;" d="M329.35,115.897c-0.204,0-0.409-0.062-0.587-0.191c-0.446-0.325-0.546-0.95-0.221-1.397
					l2.775-3.821c0.323-0.447,0.949-0.546,1.397-0.221c0.446,0.325,0.546,0.95,0.221,1.397l-2.775,3.821
					C329.964,115.754,329.659,115.897,329.35,115.897z"/>
			</g>
		</g>
	</g>
</g>
<g id="Character">
	<g id="Character_00000024714155369774172040000014179486488050360489_">
		<g id="Legs_00000080916269731802121950000000883054153555000473_">
			<g id="Leg_00000106838774943283000520000000163056838049904783_">
				<path style="fill:#D48983;" d="M127.376,385.748c2.575,8.029,5.552,15.665,3.006,22.155c-1.305,3.325-1.562,9.806,4.521,13.43
					c5.2,3.097,11.061,2.657,16.465,5.776c2.286,1.319,4.393,2.993,6.594,4.458c3.041,2.025,6.198,3.921,9.573,5.273
					c3.166,1.269,6.525,2.668,9.963,2.675c2.115,0.004,5.089-0.523,5.896-2.576l0.615-0.098c0.559,0.191,1.096,0.204,1.616,0.161
					c0.673-0.054,1.248-0.297,1.773-0.796c0,0,1.156-0.205,1.327-0.224c1.132-0.128,1.699-0.771,2.111-1.69
					c0.591-0.182,1.423-1.04,1.609-1.601c0.85-2.56-1.039-4.872-2.824-6.37c-0.877-0.736-1.827-1.374-2.804-1.955
					c-6.699-3.985-18.49-15.561-22.39-19.966c-3.51-3.964-6.693-11.675-7.874-22.445c-1.937-12.38-10.15-89.371-13.259-109.031
					c-3.109-19.66-10.111-48.639-19.267-84.633l-53.433-2.58l-1.83,41.394l37.931,71.619
					C108.559,343.256,125.812,381.416,127.376,385.748z"/>
				<path style="fill:#00826F;" d="M125.386,177.778l0.938,8.268c5.466,16.616,9.459,29.593,15.515,59.026
					c3.487,16.947,4.856,34.364,7.848,58.525c2.46,19.86,8.002,74.988,8.002,74.988s-14.473,11.129-37.87,7.341
					c-13.782-38.238-16.22-66.154-18.397-87.457l-36.2-70.945l4.844-54.403L125.386,177.778z"/>
				<path style="fill:none;stroke:#303030;stroke-width:1.5;stroke-linecap:round;stroke-linejoin:round;stroke-miterlimit:10;" d="
					M101.958,263.632c5.92,22.506,8.349,32.839,8.619,48.98c0.461,27.515,17.101,74.07,17.101,74.07"/>
				<g>
					<path style="fill:#F55571;" d="M140.332,398.752c-0.659-5.625,2.352-8.02,7.903-9.346c5.551-1.326,9.455-2.469,11.747-0.134
						c1.269,1.294,1.833,5.436,5.395,11.444c2.184,3.683,11.079,10.793,16.583,14.427c5.807,3.834,8.511,5.241,11.479,8.675
						c2.685,3.107,1.48,10.876,1.48,10.876s-9.016,8.357-22.551,6.599c-13.707-1.78-14.405-9.728-23.816-12.941
						c-4.482-1.53-15.769-4.366-19.258-8.653c-1.423-6.688-0.882-12.2-1.06-16.761c-0.198-5.069-2.388-9.929,1.329-10.423
						l0.663,2.506c0,0,4.53,1.194,6.701,1.552C139.343,396.973,140.332,398.752,140.332,398.752z"/>
					
						<path style="fill:#FFFFFF;stroke:#303030;stroke-width:1.5;stroke-linecap:round;stroke-linejoin:round;stroke-miterlimit:10;" d="
						M172.368,441.294c-13.707-1.78-14.405-9.728-23.816-12.941c-4.482-1.53-15.769-4.366-19.258-8.653v5.066
						c0,1.97,0.931,3.842,2.532,4.882c4.771,3.1,11.567,3.79,15.248,5.047c9.411,3.213,10.768,11.496,24.475,13.277
						c7.734,1.005,16.585-1.534,19.945-3.911c4.421-3.129,3.425-9.365,3.425-9.365S185.903,443.052,172.368,441.294z"/>
					<g>
						<g>
							<path style="fill:#303030;" d="M139.602,398.03c2.59,5.178,6.59,9.389,10.948,13.128c2.464,2.114,5.029,4.106,7.589,6.101
								c0.662,0.516,1.324,1.032,1.985,1.549c0.599,0.469,1.251,0.928,1.715,1.54c1.066,1.409,0.288,3-0.461,4.352
								c-0.907,1.639-1.719,3.263-2.156,5.098c-0.435,1.829-0.557,3.724-0.358,5.593c0.101,0.95,1.602,0.96,1.5,0
								c-0.186-1.74-0.101-3.49,0.304-5.194c0.39-1.638,1.082-3.094,1.9-4.554c0.749-1.338,1.52-2.833,1.257-4.415
								c-0.274-1.648-1.589-2.659-2.824-3.624c-5.004-3.913-10.206-7.715-14.536-12.395c-2.209-2.388-4.111-5.024-5.568-7.937
								C140.465,396.409,139.171,397.168,139.602,398.03L139.602,398.03z"/>
						</g>
					</g>
					<g>
						<g>
							<path style="fill:#303030;" d="M161.617,426.786c4.214,1.957,8.992,2.539,13.6,2.318c4.144-0.198,8.533-0.97,12.21-2.983
								c1.415-0.774,2.858-1.835,3.581-3.322c0.42-0.865-0.873-1.626-1.295-0.757c-0.562,1.156-1.625,1.964-2.721,2.603
								c-1.503,0.876-3.16,1.462-4.835,1.909c-4.14,1.104-8.556,1.372-12.806,0.844c-2.39-0.297-4.787-0.89-6.977-1.907
								C161.504,425.087,160.741,426.379,161.617,426.786L161.617,426.786z"/>
						</g>
					</g>
					<g>
						<g>
							<path style="fill:#303030;" d="M181.205,412.984c-6.135-1.381-12.741,0.115-17.778,3.857
								c-1.448,1.076-2.76,2.307-3.907,3.702c-0.608,0.74,0.447,1.807,1.061,1.061c4.813-5.856,12.771-8.852,20.225-7.173
								C181.747,414.642,182.148,413.196,181.205,412.984L181.205,412.984z"/>
						</g>
					</g>
					<g>
						<g>
							<path style="fill:#303030;" d="M169.029,404.166c-4.274,3.48-8.66,7.167-10.99,12.294c-0.396,0.872,0.896,1.636,1.295,0.757
								c2.28-5.016,6.575-8.586,10.756-11.99C170.838,404.617,169.772,403.561,169.029,404.166L169.029,404.166z"/>
						</g>
					</g>
					<g>
						<g>
							<path style="fill:#303030;" d="M148.503,412.373c6.767-1.918,13.945-2.942,20.974-2.244c2.006,0.199,3.99,0.57,5.927,1.126
								c0.93,0.267,1.326-1.18,0.399-1.446c-7.104-2.039-14.772-1.632-21.958-0.249c-1.933,0.372-3.848,0.83-5.741,1.367
								C147.177,411.189,147.571,412.637,148.503,412.373L148.503,412.373z"/>
						</g>
					</g>
					<g>
						<g>
							<path style="fill:#303030;" d="M163.266,395.219c-5.639,3.19-11.481,6.654-14.874,12.384
								c-0.493,0.833,0.803,1.588,1.295,0.757c3.256-5.501,8.927-8.787,14.336-11.846
								C164.864,396.039,164.109,394.743,163.266,395.219L163.266,395.219z"/>
						</g>
					</g>
					<g>
						<g>
							<path style="fill:#303030;" d="M139.069,403.353c7.552-0.758,15.217-1.374,22.801-0.73c1.745,0.148,3.48,0.376,5.201,0.703
								c0.943,0.18,1.348-1.266,0.399-1.446c-6.925-1.317-14.058-1.151-21.058-0.663c-2.451,0.171-4.898,0.391-7.342,0.636
								C138.118,401.949,138.108,403.45,139.069,403.353L139.069,403.353z"/>
						</g>
					</g>
				</g>
				<path style="fill:#303030;" d="M157.324,369.013c0,0-15.087,12.139-41.283,7.898l2.988,10.649
					c24.554,3.975,39.598-7.307,39.598-7.307L157.324,369.013z"/>
			</g>
			<g id="Leg_00000150790626040792756630000012058183066495298465_">
				<path style="fill:#D48983;" d="M94.654,296.163c5.685-40.704,8.724-73.318,8.724-73.318s10.776-18.83,12.05-34.97l-48.912-2.361
					c-9.597,19.852-11.571,27.765-12.023,65.727c-0.332,27.917,1.074,34.742,1.202,47.818c0.241,24.687,1.032,41.696,2.236,62.392
					c1.277,21.944,2.572,36.318,0.823,41.431c-2.108,6.159-3.475,9.851-6.122,14.045c-4.688,7.428-9.774,10.241-12.407,15.485
					c-0.541,1.077-1.155,3.851,0.526,4.232c-0.094,0.953,0.09,1.801,0.731,2.364c0.781,0.686,1.924,0.882,2.988,0.458
					c0.03,0.613,0.368,1.692,1.556,2.054c1.481,0.451,2.998-0.074,3.439-0.565c0.448,1.205,1.196,2.106,3.062,2.094
					c1.237-0.008,2.378-0.855,2.811-1.571c-0.026,1.111,1.381,2.143,2.325,2.352c4.573,1.012,6.679-1.477,9.095-3.726
					c2.084-1.941,3.548-4.501,5.07-6.913c1.966-3.115,3.205-6.718,4.76-8.338c1.457-1.519,4.604-2.671,6.448-5.517
					c2.897-4.472,1.785-8.977,0.78-12.821c0.102-1.157-0.239-6.861,0.216-10.377c0.647-5.002,2.033-11.89,3.25-18.783
					c1.246-7.06,5.139-31.094,5.48-44.826C93.102,318.794,93.526,304.236,94.654,296.163z"/>
				<g>
					<path style="fill:#00826F;" d="M63.575,181.177l-2.954,7.091c-11.795,18.52-12.61,33.728-11.795,71.284
						c0.938,43.235,4.15,124.651,4.15,124.651c7.233,5.904,31.525,6.224,39.574,1.057c0.906-5.315,2.122-18.479,3.569-40.415
						c0.94-14.248-0.626-22.41,0.933-36.154c4.639-40.883,8.542-78.438,8.542-78.438s18.229-17.099,19.793-52.476L63.575,181.177z"
						/>
					<path style="fill:#303030;" d="M51.854,376.161l0.57,9.865c7.784,6.354,32.306,6.639,40.968,1.078l1.05-9.805
						C85.78,382.859,59.638,382.516,51.854,376.161z"/>
					<g>
						
							<path style="fill:none;stroke:#303030;stroke-width:1.5;stroke-linecap:round;stroke-linejoin:round;stroke-miterlimit:10;" d="
							M98.858,293.442c0,0,2.592-25.226,4.254-40.669c1.903-17.689,2.049-21.377,4.382-27.739c2.175-5.93,4.801-11.707,1.571-33.063
							"/>
						
							<path style="fill:none;stroke:#303030;stroke-width:1.5;stroke-linecap:round;stroke-linejoin:round;stroke-miterlimit:10;" d="
							M62.519,189.832c7.417,2.828,39.682,7.883,62.279-2.754"/>
						
							<path style="fill:none;stroke:#303030;stroke-width:1.5;stroke-linecap:round;stroke-linejoin:round;stroke-miterlimit:10;" d="
							M80.566,193.099c-5.025,12.114-6.394,16.35-8.429,19.827c-2.969,5.073-6.857,6.498-13.63,3.743"/>
						
							<path style="fill:none;stroke:#303030;stroke-width:1.5;stroke-linecap:round;stroke-linejoin:round;stroke-miterlimit:10;" d="
							M67.359,191.18c-9.67,18.129-11.035,24.999-10.877,49.77c0.145,22.714-3.328,50.966-2.459,77.168"/>
					</g>
				</g>
				<g>
					<path style="fill:#F55571;" d="M84.031,396.136c2.8,0.332,2.657,3.61,2.518,6.666c-0.302,6.647,0.035,9.556,0.732,13.726
						c0.531,3.177,0.474,5.211,0.203,8.604c0,0-1.635,0.919-2.532,1.229c-3.286,1.133-5.319,4.504-6.896,7.723
						c-1.576,3.219-3.13,6.719-6.08,8.609c-5.822,3.728-14.087,3.691-20.617,3.368c-2.104-0.104-5.492-0.749-7.488-1.451
						c-1.996-0.702-5.281-3.054-6.348-4.951c-1.979-3.517,1.156-7.518,3.427-10.837c2.27-3.319,5.415-5.903,7.681-9.225
						c3.63-5.323,5.987-12.099,6.259-18.662c0.111-2.695,1.143-5.582,3.597-5.91c3.956-0.53,6.38-0.266,9.406-0.105
						c2.799,0.149,5.925,1.099,7.179,3.719c0.693,1.449,1.053,3.133,1.019,4.753c1.05-1.9,1.841-3.482,3.231-4.172
						c1.325-0.658,2.433-0.763,4.377-0.363C83.7,398.851,84.031,396.136,84.031,396.136z"/>
					
						<path style="fill:none;stroke:#303030;stroke-width:1.5;stroke-linecap:round;stroke-linejoin:round;stroke-miterlimit:10;" d="
						M77.753,400.409c-2.557,4.469-6.16,11.487-8.717,15.956c-0.712,1.244-1.447,2.579-1.4,4.028
						c0.067,2.076,1.677,3.678,3.077,5.152c1.784,1.879,3.428,3.977,4.346,6.445c0.918,2.467,1.031,5.361-0.165,7.694"/>
					
						<path style="fill:none;stroke:#303030;stroke-width:1.5;stroke-linecap:round;stroke-linejoin:round;stroke-miterlimit:10;" d="
						M57.255,400.433c-0.385,2.58-1.254,5.803-1.859,7.912c-0.917,3.2-1.854,6.445-3.566,9.266c-2.018,3.327-5.004,5.88-8.071,8.171
						c-0.963,0.719-1.969,1.452-2.567,2.518"/>
					
						<path style="fill:none;stroke:#303030;stroke-width:1.5;stroke-linecap:round;stroke-linejoin:round;stroke-miterlimit:10;" d="
						M73.089,428.549c-1.773,2.246-5.85,3.848-8.539,4.61c-5.911,1.675-13.254,0.734-17.278,0.078
						c-3.66-0.597-7.328-2.538-6.321-4.415"/>
					
						<path style="fill:#FFFFFF;stroke:#303030;stroke-width:1.5;stroke-linecap:round;stroke-linejoin:round;stroke-miterlimit:10;" d="
						M59.206,446.048c4.449-0.17,8.916-0.886,12.772-3.355c2.95-1.889,4.504-5.39,6.08-8.609c1.576-3.219,3.61-6.59,6.896-7.723
						c0.897-0.309,1.92-0.477,2.532-1.229c0.057,2.029,0.187,2.733-0.014,4.577c-0.182,1.678-0.499,3.291-1.924,4.087
						c-2.688,1.5-5.124,2.605-6.588,6.012c-1.786,4.156-2.96,8.364-9.469,11.219c-6.472,2.84-17.311,2.349-24.903,0.636
						c-7.551-1.703-7.43-6.972-7.063-12.005c1.007,1.79,3.072,3.764,4.927,4.459C49.371,446.708,55.451,446.191,59.206,446.048z"/>
					
						<path style="fill:none;stroke:#303030;stroke-width:1.5;stroke-linecap:round;stroke-linejoin:round;stroke-miterlimit:10;" d="
						M70.543,420.798c-6.451-4.321-14.997-4.56-22.179-1.766"/>
					
						<path style="fill:none;stroke:#303030;stroke-width:1.5;stroke-linecap:round;stroke-linejoin:round;stroke-miterlimit:10;" d="
						M69.47,415.368c-0.839-0.915-2.026-1.368-3.177-1.765c-4.34-1.496-8.799-2.611-13.317-3.327"/>
					
						<path style="fill:none;stroke:#303030;stroke-width:1.5;stroke-linecap:round;stroke-linejoin:round;stroke-miterlimit:10;" d="
						M51.822,414.056c7.757-2.503,15.057-2.943,23.175-2.884"/>
					
						<path style="fill:none;stroke:#303030;stroke-width:1.5;stroke-linecap:round;stroke-linejoin:round;stroke-miterlimit:10;" d="
						M73.148,408.653c-5.554-2.556-12.2-4.347-18.206-5.262"/>
					
						<path style="fill:none;stroke:#303030;stroke-width:1.5;stroke-linecap:round;stroke-linejoin:round;stroke-miterlimit:10;" d="
						M55.715,407.233c6.647-1.007,16.654-2.825,23.369-2.673"/>
				</g>
			</g>
		</g>
		<g id="Arm_00000085236988337482464790000011708221374914155186_">
			<path style="fill:#D48983;" d="M189.204,137.465c-0.428-0.76-1.278-1.291-2.145-1.194c0.927-0.605,1.271-1.954,0.748-2.929
				c-0.523-0.975-1.838-1.434-2.855-0.996c0.611-0.473,1.52-2.183,0.269-3.788c-1.178-1.511-3.197-0.075-3.252-0.141
				c0,0,2.387-3.979,2.883-4.779c0.941-1.521,1.308-2.218,1.557-3.349c0.287-1.304-0.846-2.309-2.105-1.685
				c-1.344,0.667-2.059,1.915-3.217,3.47c-1.418,1.903-3.698,5.349-5.455,7.571c-0.962,1.217-1.272,1.785-1.585,1.698
				c-0.66-0.184-0.37-1.919-0.206-2.635c0.251-1.094,0.584-2.207,0.433-3.34c-0.108-0.81-0.938-1.826-1.858-1.525
				c-0.22,0.072-0.401,0.232-0.555,0.405c-0.768,0.863-1.138,2.354-1.581,3.417c-0.529,1.272-1.01,2.565-1.439,3.874
				c-0.593,1.808-1.149,3.595-1.991,5.484c-0.841,1.889-2.728,3.769-3.933,4.686c-5.098,3.882-9.35,6.229-14.921,9.35
				c-6.054-6.921-12.64-14.922-16.691-19.714c-4.047-4.787-6.033-6.308-8.576-7.107c-2.663-0.837-4.153-1.217-7.498-1.715
				c-3.537,5.726-1.697,17.799,7.329,30.625c2.68,3.807,7.996,9.88,10.998,12.838c3.003,2.958,9.819,11.227,18.99,4.67
				c10.325-7.382,16.66-15.903,19.779-18.467c3.119-2.564,6.847-4.652,10.335-6.997c1.474-0.991,2.858-2.115,4.262-3.201
				c1.191-0.921,2.805-2.047,2.544-3.771C189.428,137.955,189.336,137.699,189.204,137.465z"/>
			<path style="fill:none;stroke:#303030;stroke-width:1.5;stroke-linecap:round;stroke-linejoin:round;stroke-miterlimit:10;" d="
				M177.132,134.864c0.437,3.746-1.885,6.372-3.85,8.278"/>
			<g>
				<path style="fill:none;stroke:#303030;stroke-width:1.5;stroke-linecap:round;stroke-linejoin:round;stroke-miterlimit:10;" d="
					M184.141,132.805c-1.136,0.86-2.344,1.623-3.609,2.279c-1.293,0.671-2.391,1.105-3.08,0.32
					c-0.689-0.785-0.549-1.977,0.141-2.846c0.999-1.258,2.767-2.895,4.375-4.142"/>
				<path style="fill:none;stroke:#303030;stroke-width:1.5;stroke-linecap:round;stroke-linejoin:round;stroke-miterlimit:10;" d="
					M186.255,137.212c-1.136,0.86-2.344,1.623-3.609,2.279c-1.293,0.671-2.391,1.105-3.08,0.32
					c-0.689-0.785-0.549-1.977,0.141-2.846c0.999-1.259,2.767-2.895,4.375-4.142"/>
				<path style="fill:none;stroke:#303030;stroke-width:1.5;stroke-linecap:round;stroke-linejoin:round;stroke-miterlimit:10;" d="
					M184.82,143.88c-1.294,0.671-2.391,1.105-3.08,0.32c-0.689-0.785-0.549-1.977,0.141-2.846c0.999-1.258,2.767-2.895,4.375-4.142"
					/>
			</g>
			<path style="fill:none;stroke:#303030;stroke-width:1.5;stroke-linecap:round;stroke-linejoin:round;stroke-miterlimit:10;" d="
				M147.985,151.062c-2.47,1.772-4.464,4.446-5.696,6.921"/>
			<path style="fill:#303030;" d="M124.584,157.056c0.199-0.07,0.4-0.133,0.598-0.205c2.85-1.039,5.667-2.297,8.018-4.245
				c3.468-2.874,6.571-6.42,8.873-10.368c-2.702-3.259-5.915-7.161-8.71-10.626c-6.26-7.759-9.069-9.003-18.789-10.404
				c-3.868,6.74-1.154,18.163,2.026,24.56C118.086,148.756,121.133,152.915,124.584,157.056z"/>
		</g>
		<g id="Head_00000016773547294843701640000009293599904787206041_">
			<g id="Hair_00000076598162930811319530000001971448890973470865_">
				<g id="Hair">
					<path style="fill:#303030;" d="M108.912,81.679c3.154,9.994-3.876,21.122-15.703,24.855
						c-11.827,3.733-23.972-1.343-27.126-11.337c-3.154-9.994,3.876-21.122,15.703-24.855
						C93.612,66.609,105.757,71.685,108.912,81.679z"/>
				</g>
			</g>
			<path style="fill:#D48983;" d="M104.872,88.235c-0.435-2.969-0.808-4.807-2.488-7.231c-5.439-7.85-18.092-7.704-27.008-1.694
				c3.705,9.752-3.352,16.803-3.352,16.803c1.043,1.596,0.952,1.754,1.573,3.542c-1.628-1.753-3.945-3.053-6.408-3.001
				c-2.463,0.052-4.957,1.73-5.358,4.057c-0.396,2.301,1.349,4.589,3.614,5.426c2.265,0.837,5.232,0.612,7.766-1.021l0.003-0.002
				c1.119,1.95,3.177,3.805,5.955,5.003l0,9.521l-5.146,1.881c0,0,12.921,19.846,26.372,17.612
				c13.251-2.201,0.962-19.692,0.962-19.692l-6.156-1.155l-1.476-6.925c4.633-1.309,10.027-3.422,12.676-10.391
				C107.62,97.767,107.853,90.915,104.872,88.235z"/>
			<g>
				<g>
					<path style="fill:#303030;" d="M63.623,97.218c0.05,0,0.1,0.002,0.15,0.005c0.025,0.002,0.05,0.004,0.075,0.007
						c0.054,0.006,0.065,0.035-0.029-0.004c0.042,0.018,0.102,0.018,0.148,0.028c0.049,0.011,0.097,0.024,0.145,0.038
						c0.043,0.013,0.086,0.027,0.129,0.042c0.024,0.008,0.047,0.018,0.07,0.026c0.084,0.031-0.078-0.036-0.022-0.009
						c0.091,0.044,0.18,0.088,0.266,0.14c0.039,0.023,0.076,0.048,0.114,0.074c0.021,0.014,0.041,0.029,0.061,0.044
						c0.05,0.035-0.086-0.07-0.018-0.014c0.077,0.064,0.152,0.131,0.221,0.203c0.035,0.036,0.068,0.074,0.1,0.112
						c0.013,0.015,0.024,0.032,0.038,0.047c-0.093-0.101-0.026-0.034-0.006-0.005c0.058,0.082,0.11,0.168,0.156,0.257
						c0.122,0.232,0.464,0.321,0.684,0.179c0.236-0.152,0.31-0.436,0.179-0.684c-0.47-0.897-1.454-1.479-2.463-1.486
						c-0.262-0.002-0.512,0.231-0.5,0.5C63.135,96.991,63.342,97.216,63.623,97.218L63.623,97.218z"/>
				</g>
			</g>
			<g>
				<g>
					<path style="fill:#303030;" d="M62.077,99.011c0.05,0,0.1,0.002,0.15,0.005c0.025,0.002,0.05,0.004,0.075,0.007
						c0.054,0.006,0.065,0.035-0.029-0.004c0.042,0.018,0.102,0.018,0.148,0.028c0.049,0.011,0.097,0.024,0.145,0.038
						c0.043,0.013,0.086,0.027,0.129,0.042c0.024,0.008,0.047,0.018,0.07,0.026c0.084,0.031-0.078-0.036-0.022-0.009
						c0.091,0.044,0.18,0.088,0.266,0.14c0.039,0.024,0.076,0.048,0.114,0.074c0.021,0.014,0.041,0.029,0.061,0.044
						c0.05,0.035-0.086-0.07-0.018-0.014c0.077,0.064,0.152,0.131,0.221,0.204c0.035,0.036,0.068,0.074,0.1,0.112
						c0.013,0.015,0.025,0.032,0.038,0.047c-0.093-0.101-0.026-0.034-0.006-0.005c0.058,0.082,0.11,0.168,0.156,0.257
						c0.122,0.232,0.464,0.321,0.684,0.179c0.236-0.152,0.31-0.436,0.179-0.684c-0.47-0.897-1.454-1.479-2.463-1.486
						c-0.262-0.002-0.512,0.231-0.5,0.5C61.589,98.783,61.797,99.009,62.077,99.011L62.077,99.011z"/>
				</g>
			</g>
			<g>
				<path style="fill:#303030;" d="M85.062,111.432c0,0,4.241,1.031,8.666-0.073l0.485,2.274
					C94.212,113.633,89.056,114.464,85.062,111.432z"/>
				<path style="fill:none;stroke:#303030;stroke-width:1.5;stroke-linecap:round;stroke-linejoin:round;stroke-miterlimit:10;" d="
					M90.517,85.931c1.413,4.776,4.124,5.225,4.482,7.19c0.328,1.799-1.743,2.901-2.731,3.176"/>
				<g>
					<g>
						<path style="fill:#303030;" d="M94.823,105.734c0.04,0.185,0.073,0.371,0.098,0.559c-0.006-0.044-0.012-0.089-0.018-0.133
							c0.025,0.188,0.043,0.376,0.053,0.565c0.007,0.133,0.051,0.258,0.146,0.354c0.087,0.087,0.229,0.152,0.354,0.146
							c0.129-0.006,0.263-0.048,0.354-0.146c0.087-0.095,0.154-0.221,0.146-0.354c-0.024-0.422-0.08-0.843-0.169-1.256
							c-0.025-0.119-0.127-0.239-0.23-0.299c-0.107-0.063-0.265-0.089-0.385-0.05C94.903,105.207,94.764,105.46,94.823,105.734
							L94.823,105.734z"/>
					</g>
				</g>
				<g>
					<path style="fill:#AD6163;" d="M94.359,89.358c-0.706-2.071,1.485-5.062,5.229-5.107c3.75-0.046,4.37,2.048,3.487,3.041
						c-0.882,0.993-1.299,0.162-2.54-0.359C99.294,86.413,95.167,86.985,94.359,89.358z"/>
					<g>
						<path style="fill:#FFFFFF;" d="M94.641,89.675c0.138-1.55,1.302-2.957,2.843-3.436c1.541-0.479,3.961-0.247,4.867,1.854
							C102.265,90.432,97.439,92.216,94.641,89.675z"/>
						<path style="fill:#303030;" d="M101.355,88.874c-0.281,1.164-1.497,1.876-2.718,1.591c-1.22-0.285-1.982-1.461-1.701-2.625
							c0.281-1.164,1.498-1.876,2.718-1.591C100.874,86.535,101.636,87.71,101.355,88.874z"/>
						<polygon style="fill:#FFFFFF;" points="96.77,87.814 99.146,88.357 96.734,89.063 						"/>
						
							<path style="fill:none;stroke:#303030;stroke-width:1.5;stroke-linecap:round;stroke-linejoin:round;stroke-miterlimit:10;" d="
							M102.35,88.093c-0.906-2.101-3.326-2.333-4.867-1.854c-1.54,0.479-2.705,1.887-2.843,3.436"/>
						
							<path style="fill:none;stroke:#303030;stroke-width:1.5;stroke-linecap:round;stroke-linejoin:round;stroke-miterlimit:10;" d="
							M103.435,86.399c-0.102,0.511-0.538,0.938-1.051,1.03"/>
					</g>
					
						<path style="fill:none;stroke:#303030;stroke-width:1.5;stroke-linecap:round;stroke-linejoin:round;stroke-miterlimit:10;" d="
						M94.812,81.737c2.246-0.674,4.779-0.701,6.639,0.418"/>
				</g>
				<g>
					<path style="fill:#AD6163;" d="M87.663,89.569c-0.136-2.184-3.3-4.116-6.779-2.733c-3.485,1.385-3.262,3.557-2.068,4.139
						c1.194,0.583,1.262-0.345,2.212-1.298C81.979,88.723,86.012,87.683,87.663,89.569z"/>
					<g>
						<path style="fill:#FFFFFF;" d="M79.787,91.881c0.138-1.55,1.302-2.957,2.843-3.436c1.541-0.479,3.96-0.247,4.867,1.854
							C87.412,92.638,82.586,94.421,79.787,91.881z"/>
						<path style="fill:#303030;" d="M86.502,91.079c-0.281,1.164-1.497,1.876-2.718,1.591c-1.22-0.285-1.982-1.461-1.701-2.625
							c0.281-1.164,1.497-1.876,2.717-1.591C86.021,88.74,86.783,89.915,86.502,91.079z"/>
						<polygon style="fill:#FFFFFF;" points="81.917,90.02 84.293,90.562 81.881,91.268 						"/>
						
							<path style="fill:none;stroke:#303030;stroke-width:1.5;stroke-linecap:round;stroke-linejoin:round;stroke-miterlimit:10;" d="
							M87.497,90.299c-0.906-2.101-3.326-2.333-4.867-1.854c-1.541,0.479-2.706,1.886-2.843,3.436"/>
					</g>
					
						<path style="fill:none;stroke:#303030;stroke-width:1.5;stroke-linecap:round;stroke-linejoin:round;stroke-miterlimit:10;" d="
						M78.253,90.552c0.407,0.478,1.096,0.695,1.704,0.537"/>
					
						<path style="fill:none;stroke:#303030;stroke-width:1.5;stroke-linecap:round;stroke-linejoin:round;stroke-miterlimit:10;" d="
						M85.295,82.425c-2.849,0.019-5.508,1.045-7.697,3.605"/>
				</g>
				<g>
					<path style="fill:#303030;" d="M90.804,100.733c1.276,0.019,2.836,0.207,3.336,1.299c0.582-1.365,1.569-1.797,1.569-1.797
						s-1.239-0.619-2.546-0.426C91.856,100.001,90.804,100.733,90.804,100.733z"/>
					
						<path style="fill:#FF95FB;stroke:#303030;stroke-width:1.5;stroke-linecap:round;stroke-linejoin:round;stroke-miterlimit:10;" d="
						M88.714,101.42c0.43,0.591,2.129,1.975,4.696,1.488c0.558-0.124,0.565-0.477,0.729-0.876c-0.116-0.53-1.036-1.5-3.336-1.299
						C90.217,101.155,89.331,101.37,88.714,101.42z"/>
					<path style="fill:#FFFFFF;" d="M90.103,101.05c0,0,0.118,0.475,0.883,0.513c0.765,0.038,2.379-0.245,2.894-0.595
						c0.515-0.351,0.608-1.078,0.608-1.078s-1.034-0.284-1.693-0.044C92.136,100.085,90.333,100.969,90.103,101.05z"/>
					
						<path style="fill:none;stroke:#303030;stroke-width:1.5;stroke-linecap:round;stroke-linejoin:round;stroke-miterlimit:10;" d="
						M96.946,100.225c-1.27,0.11-2.517-0.56-3.783-0.417c-0.987,0.112-1.844,0.7-2.748,1.112c-0.904,0.412-2.036,0.63-2.84,0.046"/>
					
						<path style="fill:none;stroke:#303030;stroke-width:1.5;stroke-linecap:round;stroke-linejoin:round;stroke-miterlimit:10;" d="
						M95.826,100.265c-0.816,0.484-1.464,1.119-1.785,2.012c-0.052,0.145-0.127,0.493-0.631,0.63
						c-0.926,0.253-3.523,0.121-4.75-1.559"/>
				</g>
				<g>
					
						<path style="fill:none;stroke:#303030;stroke-width:1.5;stroke-linecap:round;stroke-linejoin:round;stroke-miterlimit:10;" d="
						M65.656,100.55c0.533-0.436,1.894-0.842,3.316-0.573c1.423,0.269,2.662,1.275,3.169,2.573"/>
					
						<path style="fill:none;stroke:#303030;stroke-width:1.5;stroke-linecap:round;stroke-linejoin:round;stroke-miterlimit:10;" d="
						M68.15,101.885c0.393-0.318,1.797-1.159,3.277-0.497"/>
				</g>
			</g>
		</g>
		<g id="Chest_00000116235754762544942980000018010695376336445871_">
			<g>
				<path id="Chest_00000075842567193612601080000005808225166446608777_" style="fill:#303030;" d="M75.578,120.925l-15.846,5.607
					c-4.371,15.184,4.246,32.81,4.246,32.81c1.572,9.576,2.382,15.622,2.382,15.622s-4.03,7.631-7.889,15.354
					c7.149,8.228,26.335,9.511,40.698,7.912c14.363-1.599,23.809-6.764,28.619-11.481c-0.903-4.555-3.169-12.942-3.169-12.942
					s-0.221-7.822,0.273-16.211c7.576-17.234-4.028-29.171-10.354-36.379L97.9,118.82c0,0,7.154,10.339,3.099,18.334
					C87.283,132.597,75.578,120.925,75.578,120.925z"/>
			</g>
		</g>
		<g id="Arm_00000051371352794968276070000005664252222762870183_">
			
				<path style="fill:#FFFFFF;stroke:#303030;stroke-width:1.5;stroke-linecap:round;stroke-linejoin:round;stroke-miterlimit:10;" d="
				M109.4,176.534l27.547-3.071c1.136-0.127,2.408-1.087,2.841-2.145l13.877-33.898c0.433-1.058-0.137-1.812-1.273-1.684
				l-27.557,3.092c-1.136,0.128-2.408,1.088-2.841,2.146l-13.867,33.874C107.694,175.906,108.264,176.66,109.4,176.534z"/>
			<g>
				<path style="fill:#D48983;" d="M106.077,184.617c0,0-18.559,2.148-30.038,3.092c-10.79,0.888-12.844-3.722-15.812-10.964
					c-4.841-11.815-6.488-14.807-10.007-26.653c-3.508-11.805-0.802-18.024,8.748-22.012c4.514,3.385,6.35,6.024,10.005,14.794
					c2.72,6.527,10.24,25.431,10.24,25.431s12.448,1.638,22.084,1.75c2.801,0.033,4.189-1.751,5.39-2.757
					c3.901-3.27,6.366-4.483,6.366-4.483l-1.59,4.562c3.576-0.142,13.76-2.419,17.87-3.972c3.754-1.418,5.816,1.363,3.531,3.338
					c-0.526,0.455-1.328,1.059-1.328,1.059s0.898,2.213-2.251,4.165c-3.149,1.953-4.652,2.93-4.652,2.93s-0.167,2.13-2.106,3.954
					c-1.337,1.662-4.512,2.05-5.79,3.059C115.146,184.095,111.938,184.232,106.077,184.617z"/>
				<g>
					<g>
						<path style="fill:#303030;" d="M74.539,169.667c1.478-0.718,3.208-0.965,4.804-0.693c0.399,0.068,0.808-0.106,0.923-0.524
							c0.099-0.36-0.122-0.854-0.524-0.923c-2.041-0.348-4.097-0.061-5.96,0.844c-0.364,0.177-0.462,0.696-0.269,1.026
							C73.731,169.769,74.174,169.844,74.539,169.667L74.539,169.667z"/>
					</g>
				</g>
				<path style="fill:none;stroke:#303030;stroke-width:1.5;stroke-linecap:round;stroke-linejoin:round;stroke-miterlimit:10;" d="
					M125.227,174.955c-2.234,1.122-4.189,1.962-6.142,2.548"/>
				<path style="fill:none;stroke:#303030;stroke-width:1.5;stroke-linecap:round;stroke-linejoin:round;stroke-miterlimit:10;" d="
					M120.622,165.922c-2.461,0.651-6.884,1.372-9.159,1.702"/>
				<path style="fill:none;stroke:#303030;stroke-width:1.5;stroke-linecap:round;stroke-linejoin:round;stroke-miterlimit:10;" d="
					M131.536,167.802c-5.473,2.742-8.832,4.1-14.086,5.486"/>
			</g>
			<path style="fill:#303030;" d="M50.916,163.706c6.84,0.684,19.995-2.465,24.025-6.65c0,0-2.656-7.982-3.816-11.146
				c-2.809-7.661-6.34-14.756-11.393-19.378c-8.885,3.302-12.389,8.674-12.35,15.174C47.421,148.292,48.876,154.928,50.916,163.706z
				"/>
			<g>
				<g>
					<path style="fill:#00826F;" d="M64.382,133.353c2.633,2.884,4.25,6.538,5.577,10.167c1.546,4.228,2.766,8.567,4.258,12.814
						c0.318,0.905,1.768,0.515,1.446-0.399c-1.538-4.376-2.783-8.852-4.4-13.199c-1.395-3.749-3.098-7.461-5.821-10.443
						C64.79,131.578,63.732,132.641,64.382,133.353L64.382,133.353z"/>
				</g>
			</g>
		</g>
	</g>
</g>
</svg>
