<?xml version="1.0" encoding="utf-8"?>
<!-- Generator: Adobe Illustrator 27.5.0, SVG Export Plug-In . SVG Version: 6.00 Build 0)  -->
<svg version="1.1" xmlns="http://www.w3.org/2000/svg" xmlns:xlink="http://www.w3.org/1999/xlink" x="0px" y="0px"
	 viewBox="0 0 3710 3710" style="enable-background:new 0 0 3710 3710;" xml:space="preserve">
<g id="Background">
	<g>
		<g>
			<rect style="fill:#FFFFFF;" width="3710" height="3710"/>
		</g>
	</g>
</g>
<g id="Illustration">
	<g>
		<linearGradient id="SVGID_1_" gradientUnits="userSpaceOnUse" x1="3586.8347" y1="3994.3569" x2="1155.1698" y2="974.3817">
			<stop  offset="0" style="stop-color:#B37CFF"/>
			<stop  offset="1" style="stop-color:#F895E7"/>
		</linearGradient>
		<path style="opacity:0.3;fill:url(#SVGID_1_);" d="M2917.868,2803.388c-55.854,58.801-108.703,96.721-150.458,126.681
			c-490.821,352.169-1071.591,249.514-1195.022,224.444c-182.268-37.02-534.587-108.577-789.308-408.124
			c-385.371-453.188-325.363-1167.174-26.443-1638.486c54.677-86.211,343.498-564.702,930.524-641.437
			c355.262-46.439,769.383,47.223,1069.278,298.476C3385.947,1292.344,3341.132,2357.789,2917.868,2803.388z"/>
		<g>
			
				<linearGradient id="SVGID_00000049912421341181003370000000124099682912194718_" gradientUnits="userSpaceOnUse" x1="2844.0662" y1="161.0343" x2="1053.2131" y2="3386.0286">
				<stop  offset="0" style="stop-color:#53D8FF"/>
				<stop  offset="1" style="stop-color:#3840F7"/>
			</linearGradient>
			<path style="fill:url(#SVGID_00000049912421341181003370000000124099682912194718_);" d="M3146.99,1941.951
				c-28.327,645.268-615.918,1143.574-1312.422,1112.997S596.401,2476.492,624.728,1831.224S1240.647,687.65,1937.15,718.227
				C2633.653,748.803,3175.317,1296.683,3146.99,1941.951z"/>
			<ellipse style="opacity:0.1;fill:#FFFFFF;" cx="1817.538" cy="1802.211" rx="990.55" ry="935.754"/>
			<g style="opacity:0.68;">
				<path style="fill:#FFFFFF;" d="M2208.346,1892.236c-0.303,206.265-14.448,412.951-50.798,616.295
					c-9.203,50.794-19.871,101.345-32.582,151.416c-12.75,50.051-27.47,99.668-45.494,148.179
					c-18.174,48.385-39.268,96.073-67.872,139.658c-14.414,21.633-30.764,42.362-50.94,59.414
					c-10.085,8.471-21.161,15.985-33.344,21.489c-12.157,5.468-25.445,8.93-38.93,9.171c-13.468,0.394-26.955-2.242-39.353-7.235
					c-12.445-4.945-23.79-12.119-34.119-20.311c-20.658-16.521-37.368-37.022-52.04-58.485
					c-29.111-43.274-50.492-90.867-68.856-139.176c-18.251-48.428-33.116-98.005-45.978-148.026
					c-12.838-50.037-23.614-100.566-32.892-151.344c-18.518-101.577-31.147-204.132-39.67-306.968
					c-8.461-102.853-12.703-206.034-13.224-309.232c-0.254-51.592,1.154-103.175,2.988-154.726
					c1.932-51.551,4.771-103.068,8.566-154.515c7.631-102.882,19.028-205.535,35.972-307.345
					c8.502-50.893,18.415-101.571,30.338-151.801c11.954-50.213,25.847-100.026,43.079-148.76
					c8.661-24.345,18.131-48.429,28.931-71.947c10.784-23.513,22.851-46.513,37.034-68.258
					c14.216-21.649,30.557-42.315,50.905-58.857c10.173-8.199,21.381-15.333,33.66-20.166c12.23-4.895,25.5-7.374,38.7-6.872
					c13.208,0.376,26.229,3.669,38.242,8.96c12.03,5.316,23.084,12.546,33.233,20.741c20.298,16.495,37.099,36.662,52.002,57.84
					c29.631,42.651,51.97,89.687,71.32,137.546c19.208,47.99,35.068,97.223,48.883,146.964
					c13.765,49.765,25.422,100.085,35.509,150.7C2191.536,1479.224,2207.75,1685.935,2208.346,1892.236z M2193.079,1892.236
					c0.189-102.777-3.717-205.579-12.259-307.999c-8.421-102.416-21.178-204.538-40.183-305.529
					c-9.49-50.489-20.543-100.691-33.695-150.338c-13.198-49.621-28.433-98.737-46.98-146.581
					c-18.68-47.709-40.344-94.581-69.09-136.929c-14.45-21.025-30.75-40.993-50.31-57.239c-9.776-8.074-20.39-15.169-31.876-20.394
					c-11.473-5.162-23.832-8.546-36.4-8.876c-12.56-0.398-25.104,2.129-36.723,6.91c-11.66,4.734-22.363,11.699-32.122,19.741
					c-19.523,16.22-35.342,36.622-49.09,58.08c-13.723,21.549-25.405,44.405-35.824,67.797
					c-10.437,23.398-19.568,47.386-27.902,71.643c-16.577,48.563-29.852,98.244-41.198,148.329
					c-11.317,50.104-20.635,100.663-28.547,151.434c-15.766,101.567-26.004,203.966-32.486,306.553
					c-6.547,102.601-8.808,205.435-8.623,308.223c-0.272,102.771,3.162,205.572,10.8,308.066
					c7.699,102.476,19.492,204.695,37.14,305.909c8.843,50.596,19.174,100.935,31.551,150.753
					c12.396,49.801,26.781,99.135,44.486,147.232c17.802,47.968,38.618,95.16,66.751,137.666
					c14.159,21.075,30.269,41.064,49.793,56.911c9.756,7.863,20.374,14.667,31.852,19.324c11.443,4.67,23.721,7.266,36.022,6.851
					c12.298-0.317,24.414-3.564,35.664-8.725c11.266-5.196,21.658-12.341,31.201-20.49c19.101-16.394,34.868-36.634,48.777-57.891
					c27.641-42.842,48.157-90.14,65.759-138.188c17.467-48.185,31.693-97.56,43.963-147.392
					c12.236-49.853,22.443-100.214,31.199-150.824c17.529-101.234,29.176-203.464,36.919-305.939
					C2189.497,2097.844,2193.119,1995.033,2193.079,1892.236z"/>
				<path style="fill:#FFFFFF;" d="M2728.689,1892.236c-0.713,132.829-17.785,265.717-53.344,393.81
					c-36.179,127.799-90.717,250.745-164.76,361.126c-37.026,55.131-78.973,107.024-125.843,154.105
					c-46.85,47.068-98.664,89.308-154.908,124.707c-56.295,35.263-117.098,63.491-180.747,82.643
					c-63.611,19.197-130.017,29.211-196.483,29.278c-66.465-0.006-132.89-9.96-196.535-29.104
					c-63.682-19.099-124.534-47.281-180.888-82.509c-56.302-35.363-108.193-77.565-155.119-124.614
					c-46.948-47.061-88.978-98.943-126.088-154.074c-74.192-110.396-128.845-233.396-165.193-361.257
					c-17.891-64.049-31.187-129.362-39.995-195.257c-8.762-65.906-13.164-132.368-13.466-198.853
					c0.344-66.487,4.787-132.943,13.589-198.838c8.85-65.884,22.196-131.179,40.13-195.202
					c36.439-127.81,91.176-250.727,165.417-361.008c37.125-55.08,79.161-106.905,126.103-153.903
					c46.927-46.977,98.78-89.14,155.073-124.391c56.336-35.136,117.174-63.111,180.746-82.202
					c63.53-19.171,129.849-29.17,196.226-29.235c66.378,0.121,132.679,10.175,196.178,29.395
					c63.539,19.143,124.325,47.172,180.602,82.347c56.231,35.291,108.011,77.489,154.86,124.486
					c46.865,47.019,88.817,98.855,125.859,153.935c74.09,110.266,128.716,233.129,164.982,360.877
					C2710.723,1626.542,2727.885,1759.406,2728.689,1892.236z M2711.187,1892.236c-0.192-131.322-16.55-262.784-51.2-389.55
					c-34.842-126.57-87.302-248.763-159.526-358.653c-36.092-54.888-77.084-106.624-122.996-153.652
					c-45.93-46.955-96.663-89.437-152.147-124.746c-55.552-35.112-115.541-63.373-178.443-82.489
					c-62.87-19.13-128.511-29.186-194.272-29.404c-65.761,0.275-131.385,10.386-194.223,29.564
					c-62.87,19.167-122.807,47.484-178.299,82.633c-55.423,35.35-106.08,77.866-151.934,124.842
					c-45.834,47.049-86.744,98.796-122.752,153.684c-72.073,109.875-124.421,232.013-159.091,358.521
					c-17.272,63.326-29.778,127.898-38.252,192.95c-8.494,65.061-12.685,130.67-12.832,196.299
					c0.188,65.628,4.42,131.232,12.955,196.282c8.516,65.041,21.072,129.594,38.387,192.894
					c34.76,126.457,87.194,248.512,159.316,358.272c36.022,54.838,76.938,106.527,122.767,153.513
					c45.853,46.904,96.473,89.382,151.887,124.619c55.476,35.059,115.398,63.167,178.157,82.326
					c62.725,19.205,128.241,29.361,193.914,29.694c65.674-0.273,131.208-10.368,193.967-29.52
					c62.793-19.107,122.764-47.17,178.298-82.193c55.472-35.202,106.168-77.642,152.099-124.526
					c45.907-46.966,86.905-98.645,123.011-153.481c72.271-109.775,124.82-231.885,159.748-358.404
					C2694.457,2154.996,2710.906,2023.557,2711.187,1892.236z"/>
				<path style="fill:#FFFFFF;" d="M830.285,1438.891l263.099-2.126l263.099-1.205l526.198-0.971l526.199,1.069l263.099,1.316
					l263.099,2.294c0.427,0.004,0.769,0.353,0.765,0.78c-0.003,0.422-0.345,0.761-0.765,0.766l-263.099,2.294l-263.099,1.315
					l-526.199,1.07l-526.198-0.972l-263.099-1.204l-263.099-2.125c-0.635-0.006-1.146-0.525-1.142-1.16
					C829.149,1439.404,829.659,1438.897,830.285,1438.891z"/>
				<path style="fill:#FFFFFF;" d="M1135.511,998.223c62.264-0.987,124.529-1.409,186.792-2.125l186.793-1.204
					c62.265-0.513,124.529-0.458,186.793-0.616l186.792-0.355l373.585,1.07l186.792,1.315c62.265,0.781,124.529,1.237,186.793,2.295
					c0.426,0.007,0.766,0.359,0.759,0.786c-0.007,0.417-0.346,0.752-0.759,0.759c-62.265,1.057-124.529,1.514-186.793,2.295
					l-186.792,1.315l-373.585,1.07l-186.792-0.355c-62.265-0.159-124.529-0.103-186.793-0.616l-186.793-1.204
					c-62.264-0.716-124.528-1.139-186.792-2.125c-0.635-0.01-1.142-0.533-1.133-1.169
					C1134.389,998.733,1134.893,998.233,1135.511,998.223z"/>
				<path style="fill:#FFFFFF;" d="M738.855,1879.56l285.957-2.118l285.957-1.212l571.913-0.972l571.913,1.07l285.957,1.317
					l285.956,2.293c0.427,0.004,0.77,0.352,0.767,0.779c-0.004,0.423-0.346,0.763-0.767,0.767l-285.956,2.293l-285.957,1.317
					l-571.913,1.07l-571.913-0.972l-285.957-1.212l-285.957-2.118c-0.635-0.005-1.146-0.524-1.142-1.159
					C737.718,1880.072,738.228,1879.565,738.855,1879.56z"/>
				<path style="fill:#FFFFFF;" d="M830.285,2320.228l263.099-2.125l263.099-1.205l526.198-0.972l526.199,1.07l263.099,1.315
					l263.099,2.295c0.427,0.004,0.769,0.353,0.765,0.779c-0.003,0.422-0.345,0.762-0.765,0.766l-263.099,2.295l-263.099,1.316
					l-526.199,1.07l-526.198-0.972l-263.099-1.204l-263.099-2.126c-0.635-0.005-1.146-0.524-1.142-1.16
					C829.149,2320.74,829.659,2320.234,830.285,2320.228z"/>
				<path style="fill:#FFFFFF;" d="M2667.499,2766.082H1173.16c-2.23,0-4.034-1.806-4.034-4.034c0-2.227,1.804-4.034,4.034-4.034
					h1494.339c2.229,0,4.034,1.806,4.034,4.034C2671.532,2764.276,2669.728,2766.082,2667.499,2766.082z"/>
			</g>
		</g>
		<g>
			
				<linearGradient id="SVGID_00000018934496142152858210000012002605943608606359_" gradientUnits="userSpaceOnUse" x1="2662.1899" y1="2274.478" x2="3466.293" y2="1156.9121">
				<stop  offset="0" style="stop-color:#FDF53F"/>
				<stop  offset="1" style="stop-color:#D93C65"/>
			</linearGradient>
			<path style="fill:url(#SVGID_00000018934496142152858210000012002605943608606359_);" d="M2655.049,1759.756l-10.685,339.38
				c-1.162,36.895,28.431,67.434,65.344,67.434h387.835c35.201,0,64.083-27.871,65.335-63.05l10.613-298.016
				c1.221-34.293-24.279-63.695-58.401-67.335l-387.763-41.363C2689.511,1692.772,2656.245,1721.744,2655.049,1759.756z"/>
			<g>
				<path style="fill:#FFFFFF;" d="M3058.06,2100.343h-346.695c-10.151,0-19.378-5.59-24.081-14.589
					c-4.702-8.992-4.025-19.765,1.772-28.099l72.11-103.701c4.477-6.442,11.516-10.632,19.313-11.497
					c7.762-0.865,15.579,1.672,21.36,6.972l27.45,24.755c0.365-0.071,0.468-0.297,0.52-0.413l66.277-145.213
					c4.222-9.257,13.156-15.331,23.313-15.86c10.202-0.439,19.672,4.596,24.826,13.362l137.254,233.332
					c5.006,8.501,5.071,18.7,0.171,27.266S3067.929,2100.343,3058.06,2100.343z M2783.971,1968.924l-1.097,0.123l-72.109,103.701
					c-0.126,0.181-0.255,0.368-0.049,0.762c0.203,0.394,0.429,0.394,0.649,0.394h346.695c0.19,0,0.426,0,0.636-0.368
					c0.213-0.368,0.094-0.574-0.003-0.736l-137.254-233.338c-0.11-0.181-0.249-0.291-0.668-0.355
					c-0.446,0.026-0.542,0.226-0.633,0.426l-66.274,145.213c-3.599,7.888-10.822,13.633-19.32,15.357
					c-8.504,1.724-17.384-0.749-23.768-6.61L2783.971,1968.924z"/>
				<path style="fill:#FFFFFF;" d="M3053.347,1888.778c-34.77,0-63.056-28.286-63.056-63.06c0-34.774,28.286-63.06,63.056-63.06
					s63.06,28.286,63.06,63.06C3116.407,1860.492,3088.118,1888.778,3053.347,1888.778z M3053.347,1789.099
					c-20.191,0-36.616,16.428-36.616,36.62c0,20.191,16.425,36.62,36.616,36.62s36.619-16.428,36.619-36.62
					C3089.967,1805.527,3073.539,1789.099,3053.347,1789.099z"/>
			</g>
		</g>
		<g>
			
				<linearGradient id="SVGID_00000083811819214970522450000011299418229600229546_" gradientUnits="userSpaceOnUse" x1="2418.0132" y1="2939.8894" x2="3233.8894" y2="2092.3914">
				<stop  offset="0" style="stop-color:#FDF53F"/>
				<stop  offset="1" style="stop-color:#D93C65"/>
			</linearGradient>
			<path style="fill:url(#SVGID_00000083811819214970522450000011299418229600229546_);" d="M2441.323,2526.81v275.795
				c0,32.768,25.748,59.754,58.48,61.292l344.89,16.204c34.98,1.644,64.239-26.273,64.239-61.292v-292
				c0-33.888-27.471-61.36-61.359-61.36h-344.89C2468.794,2465.451,2441.323,2492.922,2441.323,2526.81z"/>
			<path style="fill:#FFFFFF;" d="M2566.264,2812.453c-4.457,0-8.223-0.054-11.206-0.114c-5.093-0.102-9.271-3.852-9.921-8.915
				c-0.653-5.098,2.465-9.807,7.414-11.203c26.487-7.423,55.367-20.04,76.632-30.255c-101.417-8.268-121.664-60.354-125.576-84.181
				c-9.873-60.085,42.276-128.072,116.245-151.557c75.485-23.946,151.946-15.319,194.824,21.993
				c22.784,19.831,47.498,57.802,35.845,126.137C2828.725,2802.208,2629.344,2812.453,2566.264,2812.453z M2557.547,2809.93h0.006
				H2557.547z M2555.438,2793.934c0,0,0.018,0,0.024,0C2555.456,2793.934,2555.447,2793.934,2555.438,2793.934z M2701.965,2743.938
				l-32.13,17.913c-1.692,0.941-29.973,16.625-64.368,31.01c78.298-4.721,210.761-26.84,226.913-121.595
				c8.196-48.096-1.821-84.828-29.782-109.158c-43.375-37.756-120.232-36.402-177.177-18.339
				c-64.491,20.478-111.959,80.479-103.655,131.031c7.54,45.892,59.8,71.564,143.421,69.808L2701.965,2743.938z"/>
		</g>
		<g>
			<g>
				
					<linearGradient id="SVGID_00000164504613072031154790000005624816215544418465_" gradientUnits="userSpaceOnUse" x1="1085.1451" y1="848.1044" x2="1288.3805" y2="612.2065">
					<stop  offset="0" style="stop-color:#FDF53F"/>
					<stop  offset="1" style="stop-color:#D93C65"/>
				</linearGradient>
				
					<circle style="fill:url(#SVGID_00000164504613072031154790000005624816215544418465_);" cx="1292.486" cy="607.442" r="151.519"/>
				
					<linearGradient id="SVGID_00000114065467335436774270000003371228392721213113_" gradientUnits="userSpaceOnUse" x1="1403.2219" y1="440.1508" x2="802.2491" y2="1348.0493">
					<stop  offset="0" style="stop-color:#FDF53F"/>
					<stop  offset="1" style="stop-color:#D93C65"/>
				</linearGradient>
				
					<circle style="fill:url(#SVGID_00000114065467335436774270000003371228392721213113_);" cx="1292.486" cy="607.442" r="146.481"/>
				<path style="fill:#FFFFFF;" d="M1171.694,552.746c-0.932,0-1.878-0.21-2.768-0.661c-3.034-1.529-4.251-5.23-2.718-8.265
					c24.205-47.958,72.593-77.749,126.278-77.749c8.571,0,17.149,0.772,25.498,2.292c3.344,0.61,5.561,3.812,4.951,7.156
					c-0.607,3.344-3.822,5.555-7.156,4.951c-7.622-1.391-15.46-2.094-23.293-2.094c-49.013,0-93.191,27.201-115.294,70.989
					C1176.111,551.511,1173.944,552.746,1171.694,552.746z"/>
				
					<ellipse transform="matrix(0.7071 -0.7071 0.7071 0.7071 -52.2878 1095.0323)" style="opacity:0.78;fill:#FFFFFF;" cx="1295.677" cy="610.633" rx="123.978" ry="123.978"/>
				<g>
					
						<linearGradient id="SVGID_00000143600448278420810980000004141937114036740792_" gradientUnits="userSpaceOnUse" x1="1385.2941" y1="466.1653" x2="1065.2892" y2="1003.4005">
						<stop  offset="0" style="stop-color:#FDF53F"/>
						<stop  offset="1" style="stop-color:#D93C65"/>
					</linearGradient>
					<path style="fill:url(#SVGID_00000143600448278420810980000004141937114036740792_);" d="M1283.511,702.8v-13.488
						c-14.061-0.563-27.969-3.882-37.847-8.206c-3.527-1.544-5.325-5.502-4.312-9.217l3.426-12.564
						c1.257-4.609,6.269-6.993,10.676-5.146c9.799,4.108,21.897,7.358,34.944,7.358c13.543,0,23.643-4.592,23.643-14.003
						c0-8.493-7.804-13.542-26.627-18.592c-26.857-7.346-46.14-19.053-46.14-42.696c0-21.349,15.61-37.646,42.696-42.007v-13.489
						c0-4.341,3.518-7.859,7.859-7.859h7.925c4.341,0,7.859,3.518,7.859,7.859v12.111c13.011,0.521,22.482,2.746,29.999,5.387
						c3.851,1.353,5.955,5.501,4.887,9.441l-3.151,11.62c-1.215,4.48-6.004,6.935-10.346,5.293
						c-6.92-2.617-16.704-5.342-29.422-5.342c-16.069,0-20.659,6.657-20.659,12.625c0,7.346,9.641,12.395,30.53,18.824
						c29.841,8.952,42.236,21.347,42.236,43.613c0,20.43-15.149,38.794-44.532,43.385V702.8c0,4.341-3.518,7.859-7.859,7.859h-7.926
						C1287.03,710.659,1283.511,707.141,1283.511,702.8z"/>
				</g>
			</g>
			<g>
				
					<linearGradient id="SVGID_00000012446315974206975700000005753065909085399478_" gradientUnits="userSpaceOnUse" x1="944.9797" y1="1642.8733" x2="1148.2152" y2="1406.9751">
					<stop  offset="0" style="stop-color:#FDF53F"/>
					<stop  offset="1" style="stop-color:#D93C65"/>
				</linearGradient>
				<circle style="fill:url(#SVGID_00000012446315974206975700000005753065909085399478_);" cx="1152.32" cy="1402.21" r="151.52"/>
				
					<linearGradient id="SVGID_00000073692193024093967420000016486595853731091341_" gradientUnits="userSpaceOnUse" x1="1263.0565" y1="1234.9194" x2="662.0835" y2="2142.8184">
					<stop  offset="0" style="stop-color:#FDF53F"/>
					<stop  offset="1" style="stop-color:#D93C65"/>
				</linearGradient>
				
					<circle style="fill:url(#SVGID_00000073692193024093967420000016486595853731091341_);" cx="1152.32" cy="1402.21" r="146.481"/>
				<path style="fill:#FFFFFF;" d="M1031.529,1347.515c-0.931,0-1.878-0.21-2.767-0.661c-3.034-1.529-4.251-5.231-2.719-8.265
					c24.206-47.958,72.594-77.749,126.278-77.749c8.571,0,17.149,0.772,25.498,2.292c3.344,0.61,5.561,3.813,4.951,7.156
					c-0.607,3.344-3.822,5.555-7.156,4.951c-7.622-1.391-15.46-2.094-23.292-2.094c-49.013,0-93.191,27.201-115.294,70.989
					C1035.945,1346.28,1033.779,1347.515,1031.529,1347.515z"/>
				
					<ellipse transform="matrix(0.2508 -0.968 0.968 0.2508 -494.8065 2171.438)" style="opacity:0.78;fill:#FFFFFF;" cx="1155.512" cy="1405.402" rx="123.979" ry="123.978"/>
				<g>
					
						<linearGradient id="SVGID_00000059992450146520834350000001357302328654379443_" gradientUnits="userSpaceOnUse" x1="1245.129" y1="1260.9337" x2="925.1235" y2="1798.1699">
						<stop  offset="0" style="stop-color:#FDF53F"/>
						<stop  offset="1" style="stop-color:#D93C65"/>
					</linearGradient>
					<path style="fill:url(#SVGID_00000059992450146520834350000001357302328654379443_);" d="M1143.346,1497.569v-13.488
						c-14.061-0.563-27.969-3.882-37.847-8.206c-3.527-1.544-5.325-5.503-4.312-9.217l3.427-12.564
						c1.257-4.609,6.269-6.993,10.675-5.146c9.799,4.108,21.897,7.358,34.944,7.358c13.543,0,23.643-4.591,23.643-14.003
						c0-8.492-7.805-13.542-26.627-18.592c-26.857-7.346-46.139-19.053-46.139-42.696c0-21.349,15.609-37.646,42.696-42.007v-13.489
						c0-4.34,3.518-7.859,7.859-7.859h7.925c4.34,0,7.859,3.519,7.859,7.859v12.111c13.01,0.521,22.482,2.746,29.998,5.386
						c3.851,1.353,5.956,5.501,4.888,9.441l-3.152,11.62c-1.215,4.48-6.003,6.935-10.346,5.293
						c-6.92-2.617-16.704-5.342-29.421-5.342c-16.069,0-20.659,6.656-20.659,12.625c0,7.345,9.64,12.395,30.53,18.823
						c29.842,8.952,42.236,21.347,42.236,43.614c0,20.43-15.149,38.794-44.532,43.385v15.095c0,4.341-3.518,7.859-7.859,7.859
						h-7.926C1146.865,1505.428,1143.346,1501.91,1143.346,1497.569z"/>
				</g>
			</g>
			<g>
				
					<linearGradient id="SVGID_00000091736806076837373090000011935961021160708517_" gradientUnits="userSpaceOnUse" x1="599.5455" y1="1343.5449" x2="917.0594" y2="975.0024">
					<stop  offset="0" style="stop-color:#FDF53F"/>
					<stop  offset="1" style="stop-color:#D93C65"/>
				</linearGradient>
				
					<circle style="fill:url(#SVGID_00000091736806076837373090000011935961021160708517_);" cx="923.473" cy="967.558" r="236.719"/>
				
					<linearGradient id="SVGID_00000086681502235065178620000014583816691428973960_" gradientUnits="userSpaceOnUse" x1="1096.4757" y1="706.2004" x2="157.5776" y2="2124.6077">
					<stop  offset="0" style="stop-color:#FDF53F"/>
					<stop  offset="1" style="stop-color:#D93C65"/>
				</linearGradient>
				
					<circle style="fill:url(#SVGID_00000086681502235065178620000014583816691428973960_);" cx="923.473" cy="967.558" r="228.847"/>
				<path style="fill:#FFFFFF;" d="M734.763,878.017c-0.836,0-1.685-0.189-2.483-0.593c-2.723-1.373-3.815-4.694-2.44-7.417
					c37.119-73.539,111.313-119.222,193.632-119.222c13.141,0,26.296,1.183,39.101,3.518c3.001,0.547,4.991,3.424,4.444,6.422
					c-0.55,3.001-3.416,4.985-6.422,4.444c-12.155-2.216-24.644-3.341-37.122-3.341c-78.126,0-148.543,43.358-183.775,113.155
					C738.727,876.908,736.783,878.017,734.763,878.017z"/>
				
					<ellipse transform="matrix(0.7071 -0.7071 0.7071 0.7071 -415.7533 941.3715)" style="opacity:0.78;fill:#FFFFFF;" cx="928.459" cy="972.544" rx="193.691" ry="193.691"/>
				<g>
					
						<linearGradient id="SVGID_00000176040548892677603540000003613362195618656165_" gradientUnits="userSpaceOnUse" x1="1068.4675" y1="746.8423" x2="568.5236" y2="1586.1653">
						<stop  offset="0" style="stop-color:#FDF53F"/>
						<stop  offset="1" style="stop-color:#D93C65"/>
					</linearGradient>
					<path style="fill:url(#SVGID_00000176040548892677603540000003613362195618656165_);" d="M909.452,1116.537v-21.073
						c-21.967-0.88-43.696-6.064-59.128-12.82c-5.511-2.412-8.32-8.596-6.736-14.4l5.354-19.629
						c1.963-7.2,9.794-10.925,16.678-8.039c15.308,6.417,34.211,11.494,54.593,11.494c21.158,0,36.938-7.173,36.938-21.877
						c0-13.268-12.193-21.157-41.6-29.046c-41.958-11.477-72.083-29.767-72.083-66.704c0-33.353,24.388-58.815,66.703-65.627
						v-21.075c0-6.782,5.498-12.279,12.279-12.279h12.381c6.782,0,12.279,5.497,12.279,12.279v18.921
						c20.327,0.814,35.124,4.289,46.866,8.416c6.016,2.114,9.304,8.595,7.635,14.75l-4.923,18.153
						c-1.898,7-9.38,10.834-16.164,8.269c-10.812-4.089-26.097-8.345-45.966-8.345c-25.104,0-32.275,10.399-32.275,19.724
						c0,11.475,15.061,19.364,47.695,29.407c46.622,13.986,65.986,33.351,65.986,68.138c0,31.917-23.669,60.607-69.572,67.78v23.583
						c0,6.781-5.497,12.278-12.278,12.278H921.73C914.949,1128.815,909.452,1123.318,909.452,1116.537z"/>
				</g>
			</g>
			<g>
				
					<linearGradient id="SVGID_00000046307097946797114710000011998725214090213792_" gradientUnits="userSpaceOnUse" x1="1185.23" y1="1361.897" x2="1425.9606" y2="1082.4779">
					<stop  offset="0" style="stop-color:#FDF53F"/>
					<stop  offset="1" style="stop-color:#D93C65"/>
				</linearGradient>
				
					<circle style="fill:url(#SVGID_00000046307097946797114710000011998725214090213792_);" cx="1430.823" cy="1076.834" r="179.474"/>
				
					<linearGradient id="SVGID_00000044151950647055313290000014236186659103797660_" gradientUnits="userSpaceOnUse" x1="1561.9889" y1="878.6798" x2="850.1425" y2="1954.0768">
					<stop  offset="0" style="stop-color:#FDF53F"/>
					<stop  offset="1" style="stop-color:#D93C65"/>
				</linearGradient>
				
					<circle style="fill:url(#SVGID_00000044151950647055313290000014236186659103797660_);" cx="1430.823" cy="1076.834" r="173.506"/>
				<path style="fill:#FFFFFF;" d="M1287.748,1010.312c-0.841,0-1.695-0.19-2.497-0.596c-2.739-1.38-3.837-4.721-2.454-7.459
					c28.378-56.218,85.097-91.14,148.026-91.14c10.037,0,20.097,0.906,29.89,2.69c3.017,0.55,5.018,3.441,4.468,6.459
					c-0.547,3.017-3.452,5.008-6.458,4.469c-9.141-1.668-18.527-2.511-27.9-2.511c-58.712,0-111.634,32.585-138.113,85.04
					C1291.734,1009.197,1289.779,1010.312,1287.748,1010.312z"/>
				
					<ellipse transform="matrix(0.7071 -0.7071 0.7071 0.7071 -343.9242 1330.9224)" style="opacity:0.78;fill:#FFFFFF;" cx="1434.603" cy="1080.614" rx="146.851" ry="146.851"/>
				<g>
					
						<linearGradient id="SVGID_00000133490649442438242790000003838511873410071206_" gradientUnits="userSpaceOnUse" x1="1540.7543" y1="909.4928" x2="1161.7098" y2="1545.8456">
						<stop  offset="0" style="stop-color:#FDF53F"/>
						<stop  offset="1" style="stop-color:#D93C65"/>
					</linearGradient>
					<path style="fill:url(#SVGID_00000133490649442438242790000003838511873410071206_);" d="M1420.193,1189.786v-15.977
						c-16.655-0.667-33.129-4.597-44.829-9.719c-4.178-1.829-6.308-6.518-5.108-10.918l4.059-14.881
						c1.489-5.459,7.426-8.283,12.645-6.096c11.606,4.866,25.938,8.715,41.391,8.715c16.041,0,28.005-5.439,28.005-16.587
						c0-10.06-9.244-16.041-31.54-22.022c-31.811-8.701-54.651-22.568-54.651-50.573c0-25.288,18.49-44.592,50.573-49.757v-15.978
						c0-5.142,4.167-9.31,9.308-9.31h9.387c5.142,0,9.31,4.168,9.31,9.31v14.345c15.411,0.617,26.63,3.253,35.533,6.381
						c4.561,1.603,7.054,6.516,5.788,11.183l-3.732,13.763c-1.439,5.307-7.112,8.214-12.255,6.269
						c-8.197-3.099-19.786-6.327-34.85-6.327c-19.033,0-24.47,7.884-24.47,14.954c0,8.7,11.419,14.682,36.162,22.296
						c35.347,10.604,50.029,25.285,50.029,51.66c0,24.199-17.944,45.951-52.748,51.389v17.88c0,5.141-4.167,9.309-9.309,9.309
						h-9.387C1424.36,1199.095,1420.193,1194.927,1420.193,1189.786z"/>
				</g>
			</g>
		</g>
		<g>
			
				<linearGradient id="SVGID_00000150101113659787417550000001171387413035884216_" gradientUnits="userSpaceOnUse" x1="2400.8828" y1="1618.4216" x2="3117.9539" y2="1061.5084">
				<stop  offset="0" style="stop-color:#FDF53F"/>
				<stop  offset="1" style="stop-color:#D93C65"/>
			</linearGradient>
			<path style="fill:url(#SVGID_00000150101113659787417550000001171387413035884216_);" d="M2819.29,1585.516h-331.02
				c-25.316,0-45.839-15.844-45.839-35.388V1293.89c0-18.437,18.336-33.785,42.14-35.273l352.681-22.036
				c27.784-1.736,51.126,15.915,49.454,37.395l-21.661,278.275C2863.592,1570.937,2843.538,1585.516,2819.29,1585.516z"/>
			<path style="fill:#FFFFFF;" d="M2535.403,1534.538c-9.201,0-17.8-3.221-23.818-8.968c-4.909-4.692-7.612-10.724-7.612-16.991
				v-164.281c0-4.02,3.26-7.28,7.28-7.28c4.021,0,7.28,3.26,7.28,7.28v164.281c0,2.886,1.692,5.105,3.11,6.462
				c3.498,3.345,9.086,5.165,14.906,4.909l252.168-11.595c8.716-0.398,15.807-5.502,15.807-11.371v-161.292
				c0-2.961-1.77-5.222-3.256-6.601c-3.69-3.416-9.466-5.186-15.486-4.724l-209.77,16.039c-8.535,0.654-13.188,5.065-14.578,8.645
				c-1.148,2.958-0.412,5.954,2.127,8.663l80.008,85.237c3.137,3.345,8.398,5.371,14.069,5.421
				c5.719-0.099,11.089-1.916,14.34-5.261l88.13-90.65c2.804-2.879,7.413-2.94,10.294-0.142c2.883,2.801,2.949,7.411,0.146,10.294
				l-88.13,90.65c-6.057,6.228-15.096,9.651-24.907,9.668c-9.713-0.085-18.666-3.736-24.559-10.013l-80.008-85.24
				c-6.361-6.782-8.259-15.715-5.081-23.898c3.907-10.06,14.267-16.913,27.039-17.891l209.771-16.038
				c9.967-0.761,19.879,2.438,26.489,8.563c5.108,4.731,7.921,10.87,7.921,17.279v161.292c0,13.767-13.045,25.153-29.698,25.917
				l-252.17,11.595C2536.61,1534.524,2536.004,1534.538,2535.403,1534.538z"/>
		</g>
		<g>
			<path style="fill:#FFFFFF;" d="M2395.833,1787.424c-106.254-19.455-191.014-58.054-251.923-114.725
				c-59.323-55.195-97.605-128.978-113.829-219.365c-183.669,91.17-335.86,90.371-452.417-2.394l-7.149-5.688l9.131-0.304
				c110.512-3.668,205.316-42.776,274.165-113.095c54.553-55.717,92.924-132.151,105.277-209.698l6.642,1.057
				c-12.566,78.895-51.607,156.656-107.113,213.346c-68.159,69.615-161.193,109.175-269.527,114.724
				c55.663,41.918,119.76,63.245,190.659,63.41c0.273,0,0.562,0,0.836,0c74.604,0,158.876-23.34,250.521-69.387l4.062-2.041
				l0.764,4.481c15.499,90.931,53.371,164.96,112.559,220.032c59.955,55.783,143.581,93.812,248.554,113.032L2395.833,1787.424z"/>
			
				<linearGradient id="SVGID_00000116211316794079659130000016613624683612864185_" gradientUnits="userSpaceOnUse" x1="2338.5127" y1="442.2737" x2="1537.7263" y2="1890.9707">
				<stop  offset="0" style="stop-color:#A737D5"/>
				<stop  offset="1" style="stop-color:#EF497A"/>
			</linearGradient>
			
				<circle style="fill:url(#SVGID_00000116211316794079659130000016613624683612864185_);" cx="1962.408" cy="1122.683" r="45.849"/>
			
				<linearGradient id="SVGID_00000076587707313775693590000014730094247868432059_" gradientUnits="userSpaceOnUse" x1="2144.6511" y1="423.5484" x2="1343.8644" y2="1872.2466">
				<stop  offset="0" style="stop-color:#A737D5"/>
				<stop  offset="1" style="stop-color:#EF497A"/>
			</linearGradient>
			
				<circle style="fill:url(#SVGID_00000076587707313775693590000014730094247868432059_);" cx="1579.757" cy="1445.495" r="45.849"/>
			
				<linearGradient id="SVGID_00000160875433204712993020000003717530691788052660_" gradientUnits="userSpaceOnUse" x1="2492.5977" y1="615.8822" x2="1691.8108" y2="2064.5803">
				<stop  offset="0" style="stop-color:#A737D5"/>
				<stop  offset="1" style="stop-color:#EF497A"/>
			</linearGradient>
			
				<circle style="fill:url(#SVGID_00000160875433204712993020000003717530691788052660_);" cx="2034.019" cy="1445.495" r="45.849"/>
			
				<linearGradient id="SVGID_00000031201545663503579890000006179454147135515821_" gradientUnits="userSpaceOnUse" x1="2933.6116" y1="859.6613" x2="2132.8245" y2="2308.3596">
				<stop  offset="0" style="stop-color:#A737D5"/>
				<stop  offset="1" style="stop-color:#EF497A"/>
			</linearGradient>
			
				<circle style="fill:url(#SVGID_00000031201545663503579890000006179454147135515821_);" cx="2419.853" cy="1789.099" r="45.849"/>
		</g>
		<g>
			
				<linearGradient id="SVGID_00000106119298379052356170000004223481603213577905_" gradientUnits="userSpaceOnUse" x1="480.3774" y1="3259.4724" x2="946.1256" y2="2634.6892">
				<stop  offset="0" style="stop-color:#2B3582"/>
				<stop  offset="1" style="stop-color:#150E42"/>
			</linearGradient>
			<path style="fill:url(#SVGID_00000106119298379052356170000004223481603213577905_);" d="M524.384,2487.959
				c0,0,213.146,562.135,280.486,679.074c78.169,135.744,306.463,49.245,295.103-64.358
				c-11.36-113.603-278.087-583.163-278.087-583.163L524.384,2487.959z"/>
			
				<linearGradient id="SVGID_00000004528977463046477320000013456399440173422777_" gradientUnits="userSpaceOnUse" x1="1264.748" y1="1748.5487" x2="2112.5134" y2="3258.4397">
				<stop  offset="0" style="stop-color:#CB236D"/>
				<stop  offset="1" style="stop-color:#4C246D"/>
			</linearGradient>
			<polygon style="fill:url(#SVGID_00000004528977463046477320000013456399440173422777_);" points="812.383,2078.473 
				2137.162,1619.151 2123.249,2862.148 776.18,2561.584 			"/>
			
				<linearGradient id="SVGID_00000085248676150163074510000005078817686446996131_" gradientUnits="userSpaceOnUse" x1="2864.457" y1="1941.7371" x2="2001.0747" y2="2301.4802">
				<stop  offset="0" style="stop-color:#A737D5"/>
				<stop  offset="1" style="stop-color:#EF497A"/>
			</linearGradient>
			
				<ellipse style="fill:url(#SVGID_00000085248676150163074510000005078817686446996131_);" cx="2138.411" cy="2244.257" rx="130.155" ry="638.785"/>
			
				<linearGradient id="SVGID_00000091699766361246560630000012529434318064008355_" gradientUnits="userSpaceOnUse" x1="1994.5278" y1="2254.6282" x2="2337.1223" y2="2223.4832">
				<stop  offset="0" style="stop-color:#A737D5"/>
				<stop  offset="1" style="stop-color:#EF497A"/>
			</linearGradient>
			<path style="fill:url(#SVGID_00000091699766361246560630000012529434318064008355_);" d="M2148.289,2839.358
				c-11.763-11.964-37.391-58.118-59.36-177.466c-21.234-115.337-32.927-264.938-32.927-421.241
				c0-156.304,11.693-305.904,32.927-421.241c21.969-119.349,47.597-165.503,59.36-177.468
				c11.764,11.965,37.391,58.118,59.361,177.468c21.234,115.337,32.927,264.937,32.927,421.241
				c0,156.304-11.693,305.904-32.927,421.241C2185.68,2781.24,2160.053,2827.393,2148.289,2839.358z"/>
			<g>
				<defs>
					<path id="SVGID_00000083771199585730195010000001535404085647482798_" d="M2148.289,2839.358
						c-11.763-11.964-37.391-58.118-59.36-177.466c-21.234-115.337-32.927-264.938-32.927-421.241
						c0-156.304,11.693-305.904,32.927-421.241c21.969-119.349,47.597-165.503,59.36-177.468
						c11.764,11.965,37.391,58.118,59.361,177.468c21.234,115.337,188.789,264.937,188.789,421.241
						c0,156.304-167.554,305.904-188.789,421.241C2185.68,2781.24,2160.053,2827.393,2148.289,2839.358z"/>
				</defs>
				<clipPath id="SVGID_00000144297493177893870310000005457347475139732919_">
					<use xlink:href="#SVGID_00000083771199585730195010000001535404085647482798_"  style="overflow:visible;"/>
				</clipPath>
				
					<linearGradient id="SVGID_00000015353282976715519560000015572218706384605063_" gradientUnits="userSpaceOnUse" x1="2426.7659" y1="2219.488" x2="1502.7947" y2="2272.5034">
					<stop  offset="0" style="stop-color:#2B3582"/>
					<stop  offset="1" style="stop-color:#150E42"/>
				</linearGradient>
				
					<path style="clip-path:url(#SVGID_00000144297493177893870310000005457347475139732919_);fill:url(#SVGID_00000015353282976715519560000015572218706384605063_);" d="
					M2315.112,2235.893c0,108.537-58.469,196.523-174.191,196.523c-115.723,0-209.535-87.987-209.535-196.523
					c0-108.536,93.812-196.523,209.535-196.523C2256.643,2039.37,2315.112,2127.357,2315.112,2235.893z"/>
			</g>
			
				<linearGradient id="SVGID_00000111871689449059007130000013773614145735842744_" gradientUnits="userSpaceOnUse" x1="676.512" y1="2547.7659" x2="642.4322" y2="1690.1064">
				<stop  offset="0" style="stop-color:#2B3582"/>
				<stop  offset="1" style="stop-color:#150E42"/>
			</linearGradient>
			<path style="fill:url(#SVGID_00000111871689449059007130000013773614145735842744_);" d="M598.717,2051.753
				c62.32-7.237,151.685-9.842,248.309,12.287c-31.834,166.292-27.03,339.618,9.787,519.09l-272.529,0
				c-43.45,0-80.501-31.561-87.277-74.48c-13.582-86.029-30.187-230.622-12.482-346.752
				C493.411,2103.618,540.156,2058.554,598.717,2051.753z"/>
			<path style="fill:#FFFFFF;" d="M762.275,2179.113H549.942c-7.207,0-13.567-3.779-17.011-10.11
				c-3.443-6.331-3.162-13.724,0.754-19.774c1.639-2.531,5.019-3.242,7.55-1.617c2.531,1.639,3.256,5.019,1.617,7.554
				c-1.706,2.637-1.829,5.858-0.329,8.62c1.502,2.758,4.276,4.408,7.419,4.408h212.333c4.656,0,8.444-3.786,8.444-8.443v-15.11
				c0-4.657-3.787-8.443-8.444-8.443H548.368c-3.016,0-5.46-2.445-5.46-5.46c0-3.014,2.443-5.46,5.46-5.46h213.907
				c10.678,0,19.364,8.688,19.364,19.363v15.11C781.639,2170.425,772.953,2179.113,762.275,2179.113z"/>
			<path style="fill:#FFFFFF;" d="M743.341,2273.15H531.008c-7.207,0-13.566-3.779-17.011-10.109
				c-3.443-6.331-3.162-13.724,0.753-19.774c1.639-2.528,5.021-3.242,7.55-1.617c2.531,1.639,3.256,5.019,1.618,7.553
				c-1.706,2.637-1.829,5.858-0.329,8.62c1.502,2.759,4.276,4.408,7.419,4.408h212.333c4.656,0,8.444-3.786,8.444-8.442v-15.107
				c0-4.657-3.787-8.446-8.444-8.446H529.434c-3.016,0-5.46-2.446-5.46-5.46c0-3.014,2.444-5.46,5.46-5.46h213.907
				c10.678,0,19.364,8.688,19.364,19.366v15.107C762.705,2264.463,754.019,2273.15,743.341,2273.15z"/>
			<path style="fill:#FFFFFF;" d="M1004.882,2044.829c-2.314,0-4.461-1.483-5.2-3.804c-0.915-2.875,0.674-5.943,3.546-6.86
				l1003.372-319.292c2.872-0.913,5.943,0.676,6.859,3.547c0.915,2.876-0.674,5.944-3.546,6.861L1006.54,2044.573
				C1005.989,2044.747,1005.431,2044.829,1004.882,2044.829z"/>
			<path style="fill:#FFFFFF;" d="M869.198,2100.296c-2.152,0-4.191-1.28-5.057-3.395c-1.141-2.791,0.197-5.979,2.99-7.12
				l51.64-21.107c2.788-1.148,5.979,0.199,7.12,2.989c1.141,2.79-0.197,5.979-2.99,7.12l-51.64,21.107
				C870.586,2100.167,869.886,2100.296,869.198,2100.296z"/>
			<path style="fill:#FFFFFF;" d="M762.275,2383.284H549.942c-7.207,0-13.565-3.779-17.009-10.11
				c-3.445-6.331-3.164-13.724,0.752-19.774c1.639-2.535,5.019-3.249,7.55-1.621c2.531,1.639,3.256,5.019,1.617,7.55
				c-1.708,2.641-1.831,5.865-0.327,8.627c1.502,2.759,4.274,4.408,7.417,4.408h212.333c4.656,0,8.444-3.789,8.444-8.446v-15.107
				c0-4.656-3.787-8.442-8.444-8.442H548.368c-3.016,0-5.46-2.445-5.46-5.46c0-3.014,2.443-5.46,5.46-5.46h213.907
				c10.678,0,19.364,8.688,19.364,19.362v15.107C781.639,2374.596,772.953,2383.284,762.275,2383.284z"/>
			<path style="fill:#FFFFFF;" d="M782.156,2505.528H569.823c-7.207,0-13.565-3.779-17.009-10.109
				c-3.444-6.331-3.164-13.725,0.752-19.774c1.641-2.535,5.021-3.249,7.55-1.621c2.531,1.639,3.256,5.019,1.617,7.55
				c-1.708,2.641-1.831,5.865-0.327,8.627c1.502,2.758,4.274,4.408,7.417,4.408h212.333c4.657,0,8.444-3.786,8.444-8.443v-15.111
				c0-4.656-3.787-8.442-8.444-8.442H568.249c-3.016,0-5.46-2.446-5.46-5.46c0-3.014,2.444-5.46,5.46-5.46h213.907
				c10.678,0,19.364,8.688,19.364,19.362v15.111C801.52,2496.84,792.834,2505.528,782.156,2505.528z"/>
			<path style="fill:#FFFFFF;" d="M971.796,3170.166c-9.784,0-19.673-1.056-29.539-3.207c-43.169-9.406-78.314-37.871-96.421-78.099
				l-169.642-376.876c-1.239-2.748-0.012-5.979,2.737-7.219c2.75-1.24,5.982-0.007,7.219,2.74l169.641,376.877
				c16.673,37.036,49.036,63.247,88.789,71.907c39.071,8.52,78.605-1.593,108.475-27.733c1.601-1.401,3.21-2.84,4.826-4.315
				c2.225-2.033,5.678-1.88,7.713,0.348c2.033,2.225,1.879,5.68-0.348,7.713c-1.676,1.532-3.342,3.021-5.001,4.472
				C1035.294,3158.606,1004.143,3170.166,971.796,3170.166z"/>
			<path style="fill:#FFFFFF;" d="M656.093,2659.479c-2.083,0-4.072-1.198-4.982-3.217l-18.925-42.044
				c-1.239-2.748-0.012-5.979,2.737-7.219c2.747-1.237,5.982-0.007,7.22,2.737l18.925,42.041c1.239,2.751,0.012,5.982-2.737,7.223
				C657.603,2659.326,656.841,2659.479,656.093,2659.479z"/>
			<path style="fill:#FFFFFF;" d="M2284.092,2230.235c-2.84,0-5.236-2.197-5.441-5.073c-3.773-53.181-22.206-92.829-54.785-117.843
				c-56.342-43.256-136.735-28.391-137.542-28.231c-2.977,0.565-5.823-1.365-6.393-4.326c-0.572-2.961,1.367-5.826,4.328-6.395
				c3.483-0.672,86.061-15.921,146.257,30.289c35.164,26.997,55.024,69.301,59.026,125.731c0.213,3.007-2.051,5.62-5.06,5.833
				C2284.351,2230.232,2284.222,2230.235,2284.092,2230.235z"/>
		</g>
		<g>
			
				<linearGradient id="SVGID_00000053529526487329925960000013948555821650022544_" gradientUnits="userSpaceOnUse" x1="-7925.9316" y1="-7119.1758" x2="-7960.1968" y2="-6593.7773" gradientTransform="matrix(-0.7895 -0.6137 -0.6137 0.7895 -9357.4795 3191.1018)">
				<stop  offset="0" style="stop-color:#2B3582"/>
				<stop  offset="1" style="stop-color:#150E42"/>
			</linearGradient>
			<path style="fill:url(#SVGID_00000053529526487329925960000013948555821650022544_);" d="M1121.065,2489.734
				c0,0-18.139,1.979-27.026,15.934c-4.251,6.677-2.978,15.497,2.39,21.313c23.854,25.845,102.827,109.693,142.825,131.185
				c3.279,1.762,7.256-0.712,7.205-4.434c-0.141-10.353-3.13-31.586-19.941-65.24l1.19,4.558c1.506,5.77-5.32,10.042-9.812,6.12
				C1192.716,2577.188,1141.932,2529.969,1121.065,2489.734z"/>
			
				<linearGradient id="SVGID_00000019666262101966307090000010169946481225915064_" gradientUnits="userSpaceOnUse" x1="20299.0801" y1="2090.4656" x2="19891.998" y2="2322.8225" gradientTransform="matrix(1 0 0 1 -18912.9277 0)">
				<stop  offset="0" style="stop-color:#F9B776"/>
				<stop  offset="1" style="stop-color:#F47960"/>
			</linearGradient>
			<path style="fill:url(#SVGID_00000019666262101966307090000010169946481225915064_);" d="M1324.262,2469.262
				c-0.48-0.184-258.688-452.369-293.58-494.922c-5.871-7.157-14.955-10.802-24.147-9.707l-72.07,8.589l-84.667,183.166
				l141.053-82.147c-13.957,96.529,167.244,239.984,229.389,292.329c6.307,5.313,6.824,14.827,1.128,20.789l-24.81,25.971
				c40.732,41.287,87.733,67.797,140.781,80.059L1324.262,2469.262z"/>
			
				<linearGradient id="SVGID_00000105409004285114235940000007980935077342867868_" gradientUnits="userSpaceOnUse" x1="-9898.5283" y1="-4686.4126" x2="-9929.7783" y2="-4207.2437" gradientTransform="matrix(-0.8974 -0.4412 -0.4412 0.8974 -9617.6494 2161.1482)">
				<stop  offset="0" style="stop-color:#2B3582"/>
				<stop  offset="1" style="stop-color:#150E42"/>
			</linearGradient>
			<path style="fill:url(#SVGID_00000105409004285114235940000007980935077342867868_);" d="M1210.91,2399.313
				c0,0-15.835,5.115-21.196,19.218c-2.565,6.748,0.2,14.389,6.068,18.593c26.073,18.68,112.077,78.988,151.766,90.799
				c3.253,0.968,6.349-1.975,5.616-5.29c-2.037-9.219-8.625-27.631-29.849-54.584l1.904,3.852c2.41,4.875-2.898,9.949-7.633,7.276
				C1291.041,2464.193,1236.972,2431.394,1210.91,2399.313z"/>
			
				<linearGradient id="SVGID_00000044892950936162298980000002671682274869968048_" gradientUnits="userSpaceOnUse" x1="20259.6992" y1="2148.4136" x2="21652.5332" y2="1276.478" gradientTransform="matrix(1 0 0 1 -18912.9277 0)">
				<stop  offset="0" style="stop-color:#F9B776"/>
				<stop  offset="1" style="stop-color:#F47960"/>
			</linearGradient>
			<path style="fill:url(#SVGID_00000044892950936162298980000002671682274869968048_);" d="M1223.688,2580.242
				c-0.433-0.278-39.173-93.614-39.605-93.891c-35.52-216.26-122.181-401.469-147.738-450.204
				c-4.3-8.197-12.458-13.604-21.683-14.392l-72.317-6.175L822.36,2177.821l154.759-51.901
				c-33.204,91.707,115.216,268.865,165.482,332.703c5.101,6.479,3.683,15.902-3.102,20.588l-29.553,20.413
				c31.533,48.675,72.197,84.149,121.665,106.892L1223.688,2580.242z"/>
			<g>
				
					<linearGradient id="SVGID_00000025431876163775368820000015881530066599653273_" gradientUnits="userSpaceOnUse" x1="12086.0713" y1="1798.7183" x2="11751.2617" y2="2165.6331" gradientTransform="matrix(1 0 0 1 -11081.2285 0)">
					<stop  offset="0" style="stop-color:#FDF53F"/>
					<stop  offset="1" style="stop-color:#D93C65"/>
				</linearGradient>
				<path style="fill:url(#SVGID_00000025431876163775368820000015881530066599653273_);" d="M603.837,1981.412
					c0,0-65.42,97.304-70.788,141.69c-5.368,44.385,18.09,59.735,86.563,65.396c203.764,16.844,304.211-44.225,304.211-44.225
					c13.939-88.874,23.857-111.484,140.271-159.806c0,0-147.244,11.69-176.878,0.19
					C857.583,1973.157,603.837,1981.412,603.837,1981.412z"/>
			</g>
			<g>
				
					<linearGradient id="SVGID_00000028291692581924140180000012375420261247410109_" gradientUnits="userSpaceOnUse" x1="-12991.918" y1="-1339.3164" x2="-12891.8154" y2="-1088.2113" gradientTransform="matrix(-0.9446 -0.3283 -0.3283 0.9446 -11777.3916 -1699.1722)">
					<stop  offset="0" style="stop-color:#2B3582"/>
					<stop  offset="1" style="stop-color:#150E42"/>
				</linearGradient>
				<path style="fill:url(#SVGID_00000028291692581924140180000012375420261247410109_);" d="M864.711,1436.253
					c0,0-45.564-53.91-94.006,12.233c-8.773,11.98-42.471,2.096-54.824,27.171c-6.378,12.947-20.156,20.301-34.348,17.683
					c-35.348-6.52-93.125-7.069-121.652,48.324c-21.774,42.281-4.963,67.026,16.803,81.132
					c15.986,10.362,21.692,31.398,12.025,47.813c-9.272,15.745-11.016,37.067,12.926,62.727
					c53.652,57.503,159.86-36.492,159.86-36.492l84.327-199.267L864.711,1436.253z"/>
				
					<linearGradient id="SVGID_00000127745665116626632490000003736784106939160756_" gradientUnits="userSpaceOnUse" x1="19833.9473" y1="1646.7382" x2="18874.2969" y2="2572.4194" gradientTransform="matrix(1 0 0 1 -18912.9277 0)">
					<stop  offset="0" style="stop-color:#FDF53F"/>
					<stop  offset="1" style="stop-color:#D93C65"/>
				</linearGradient>
				<path style="fill:url(#SVGID_00000127745665116626632490000003736784106939160756_);" d="M780.76,1968.53
					c0,0,76.182-72.541,113.682-120.588c20.271-25.972,26.636-60.163,17.262-91.747c-17.121-57.681-47.547-117.422-50.322-126.721
					c-4.253-14.252-89.673-13.659-89.673-13.659s-168.09,109.092-234.133,293.886l74.171,23.091c0,0,43.888-73.63,87.253-120.443
					c0,0-75.036,99.124-77.678,139.704L780.76,1968.53z"/>
				
					<linearGradient id="SVGID_00000111182637867364367000000014775055036486217601_" gradientUnits="userSpaceOnUse" x1="-11189.6279" y1="1956.5327" x2="-10784.1133" y2="1956.5327" gradientTransform="matrix(-1 0 0 1 -10516.4648 0)">
					<stop  offset="0" style="stop-color:#F9B776"/>
					<stop  offset="1" style="stop-color:#F47960"/>
				</linearGradient>
				<path style="fill:url(#SVGID_00000111182637867364367000000014775055036486217601_);" d="M925.911,1997.156l-57.243-62.281
					l-66.11,17.801c0,0-77.074,11.941-121.186,0c-44.112-11.941-44.112-11.941-44.112-11.941l-99.684-31.035l-15.656,44.246
					c-3.976,11.234,0.019,23.705,9.732,30.608c8.624,6.128,18.733,12.863,25.177,15.682c13.128,5.743,302.405,1.816,302.405,1.816
					L925.911,1997.156z"/>
				
					<linearGradient id="SVGID_00000083804512985467932800000008028355899042520239_" gradientUnits="userSpaceOnUse" x1="-13106.2363" y1="719.8623" x2="-13086.4131" y2="574.8407" gradientTransform="matrix(-0.9974 -0.0717 -0.0717 0.9974 -12182.3359 105.0094)">
					<stop  offset="0" style="stop-color:#F9B776"/>
					<stop  offset="1" style="stop-color:#F47960"/>
				</linearGradient>
				<path style="fill:url(#SVGID_00000083804512985467932800000008028355899042520239_);" d="M830.416,1513.112l-57.411,106.758
					c3.791,23.304,62.486,23.961,71.552,10.046c0.923-1.416,1.451-3.054,1.801-4.708l34.344-71.333
					c1.475-6.956-17.594-30.393-23.871-33.734l-22.819-12.147C825.225,1503.318,861.889,1502.95,830.416,1513.112z"/>
				<g>
					
						<linearGradient id="SVGID_00000180364532590307579810000009359522139054163112_" gradientUnits="userSpaceOnUse" x1="-10772.8779" y1="-5618.7158" x2="-10586.2305" y2="-5950.8853" gradientTransform="matrix(-0.5458 -0.8379 -0.8379 0.5458 -9763.3516 -4320.769)">
						<stop  offset="0" style="stop-color:#F9B776"/>
						<stop  offset="1" style="stop-color:#F47960"/>
					</linearGradient>
					<path style="fill:url(#SVGID_00000180364532590307579810000009359522139054163112_);" d="M946.606,1488.057
						c0,0,6.481,36.068-21.868,81.928c-28.349,45.859-56.579,43.789-70.922,27.434c-14.342-16.355-31.522-43.594-23.705-89.333
						C837.927,1462.347,936.813,1442.062,946.606,1488.057z"/>
					
						<linearGradient id="SVGID_00000083080019348639822990000017423208270102380983_" gradientUnits="userSpaceOnUse" x1="-10732.7412" y1="-5907.9839" x2="-10639.418" y2="-5673.8853" gradientTransform="matrix(-0.5458 -0.8379 -0.8379 0.5458 -9763.3516 -4320.769)">
						<stop  offset="0" style="stop-color:#2B3582"/>
						<stop  offset="1" style="stop-color:#150E42"/>
					</linearGradient>
					<path style="fill:url(#SVGID_00000083080019348639822990000017423208270102380983_);" d="M864.429,1513.056
						c0,0,45.904-60.295,81.147-7.733l-0.594,18.157c0,0,45.829-2.143,40.859-44.383c-4.969-42.241-42.385-71.097-94.255-56.665
						c-51.87,14.432-82.179,30.868-88.036,66.881c-5.858,36.013,23.549,30.129,23.549,30.129s11.232-24.849,24.796-26.546
						c13.563-1.697,8.662,17.959,8.662,17.959L864.429,1513.056z"/>
					
						<linearGradient id="SVGID_00000098908433225573506270000016130362723816119953_" gradientUnits="userSpaceOnUse" x1="-10733.1465" y1="-5596.394" x2="-10546.5" y2="-5928.562" gradientTransform="matrix(-0.5458 -0.8379 -0.8379 0.5458 -9763.3516 -4320.769)">
						<stop  offset="0" style="stop-color:#F9B776"/>
						<stop  offset="1" style="stop-color:#F47960"/>
					</linearGradient>
					<path style="fill:url(#SVGID_00000098908433225573506270000016130362723816119953_);" d="M853.895,1511.449
						c0,0,23.779-30.857,2.134-37.261c-21.645-6.404-20.836,30.235-19.426,43.865L853.895,1511.449z"/>
				</g>
			</g>
			<g>
				
					<linearGradient id="SVGID_00000052085101212477452070000005933369007753418399_" gradientUnits="userSpaceOnUse" x1="-11252.0234" y1="1452.7755" x2="-11464.1602" y2="1510.9167" gradientTransform="matrix(-0.9988 -0.0494 -0.0494 0.9988 -10474.9961 -55.0328)">
					<stop  offset="0" style="stop-color:#2B3582"/>
					<stop  offset="1" style="stop-color:#150E42"/>
				</linearGradient>
				<path style="fill:url(#SVGID_00000052085101212477452070000005933369007753418399_);" d="M736.428,2021.806
					c0.201,0.01,0.403,0.015,0.605,0.014l263.294-0.288c6.509-0.005,11.779-5.287,11.773-11.796
					c-0.006-6.511-5.308-11.89-11.799-11.772l-263.294,0.287c-6.509,0.005-11.779,5.288-11.772,11.796
					C725.243,2016.353,730.201,2021.498,736.428,2021.806z"/>
				
					<linearGradient id="SVGID_00000173877424277113697020000000569553099354902461_" gradientUnits="userSpaceOnUse" x1="-207.6955" y1="1917.7028" x2="1700.2535" y2="1757.1782" gradientTransform="matrix(-1 0 0 1 1034.6445 0)">
					<stop  offset="0" style="stop-color:#2B3582"/>
					<stop  offset="1" style="stop-color:#150E42"/>
				</linearGradient>
				<path style="fill:url(#SVGID_00000173877424277113697020000000569553099354902461_);" d="M1237.017,1782.751h-219.273
					c-16.176,0-30.899,9.335-37.799,23.965l-101.369,214.948h272.497c10.424,0,19.79-6.369,23.621-16.064l78.608-198.903
					C1257.844,1795.206,1249.375,1782.751,1237.017,1782.751z"/>
				
					<linearGradient id="SVGID_00000003070171507327048970000014314480919246458040_" gradientUnits="userSpaceOnUse" x1="1502.2572" y1="1486.1155" x2="1005.4313" y2="1993.8615">
					<stop  offset="0" style="stop-color:#53D8FF"/>
					<stop  offset="1" style="stop-color:#3840F7"/>
				</linearGradient>
				<path style="fill:url(#SVGID_00000003070171507327048970000014314480919246458040_);" d="M1082.537,1892.962
					c-4.751,14.763-1.241,29.1,7.841,32.023c9.082,2.923,20.296-6.675,25.048-21.438c4.752-14.762,1.242-29.1-7.84-32.023
					C1098.503,1868.601,1087.289,1878.199,1082.537,1892.962z"/>
			</g>
		</g>
	</g>
</g>
</svg>
