<?xml version="1.0" encoding="utf-8"?>
<!-- Generator: Adobe Illustrator 27.5.0, SVG Export Plug-In . SVG Version: 6.00 Build 0)  -->
<svg version="1.1" xmlns="http://www.w3.org/2000/svg" xmlns:xlink="http://www.w3.org/1999/xlink" x="0px" y="0px"
	 viewBox="0 0 500 500" style="enable-background:new 0 0 500 500;" xml:space="preserve">
<g id="BACKGROUND">
	<rect style="fill:#F4F2EE;" width="500" height="500"/>
</g>
<g id="OBJECTS">
	<g>
		<g>
			<g>
				<path style="fill:#252654;" d="M258.823,321.994c0.791-2.73,1.587-5.709,2.468-9.232c2.475-1.606,4.814-3.223,7.035-4.862
					c0.559,1.341,1.234,2.599,2.019,3.766c4.672,6.931,11.174,11.22,18.307,12.075c0.539,0.064,1.082,0.11,1.626,0.134
					c7.821,0.356,15.735-3.412,21.712-10.339c1.155-1.34,2.373-3.134,3.567-5.213c0.034,0.15,0.068,0.299,0.104,0.448
					c1.617,6.729,5.644,12.271,11.34,15.605c3.191,1.869,6.836,2.946,10.538,3.115c2.947,0.134,5.865-0.29,8.672-1.263
					c6.069-2.103,10.739-5.681,14.525-11.253c1.426,0.697,2.955,1.23,4.56,1.585c1.499,0.332,3.006,0.535,4.478,0.602
					c0.001,0,0.001,0,0.002,0c16.537,0.754,24.305-14.892,25.136-16.678c2.347-5.04-0.036-11.467-5.306-14.322
					c-1.506-0.818-3.172-1.29-4.817-1.365c-3.962-0.181-7.432,1.85-9.029,5.239c-0.8,1.62-2.902,4.58-5.281,5.663
					c0.183-2.209,0.831-6.006,2.652-12.429c1.43-4.635,2.032-6.897,2.032-6.897c1.448-5.381-1.862-11.421-7.385-13.466
					c-1.08-0.398-2.193-0.626-3.306-0.677c-4.48-0.204-8.324,2.468-9.563,6.641l-0.548,1.835c-0.48,1.608-0.97,3.246-1.443,4.895
					c-1.644,5.313-3.6,11.243-5.816,17.623c-3.209,9.246-5.98,11.84-9.41,13.029c-0.609,0.211-1.027,0.229-1.221,0.22
					c-0.064-0.003-0.113-0.008-0.15-0.015c-0.066-0.123-0.169-0.359-0.258-0.728c-1.844-7.669,4.307-25.498,7.264-34.066
					c1.71-4.954-0.743-10.69-5.589-13.36c10.464-5.576,17.6-18.241,21.153-24.545c1.321-2.343,1.599-5.151,0.782-7.908
					c-0.816-2.756-2.63-5.13-5.102-6.682c-1.681-1.056-3.574-1.661-5.473-1.747c-3.668-0.167-7.019,1.634-8.744,4.698
					c-8.935,15.854-13.91,17.628-14.918,17.833c-0.675-1.044-2.878-5.619-2.417-20.308c8.16-11.773,17.103-28.112,24.14-44.149
					c3.899-8.887,14.258-32.493-1.526-42.647c-2.663-1.713-5.634-2.689-8.59-2.824c-1.57-0.072-3.141,0.09-4.674,0.481
					c-9.201,2.357-15.468,12.935-19.103,21.395c-5.289,12.304-7.661,24.932-8.954,36.458c-2.855-2.001-6.12-3.185-9.622-3.442
					l-0.459-0.027c-10.42-0.475-18.673,7.49-21.582,11.77c-1.287,1.896-5.59,8.789-6.866,17.871
					c-0.046,0.329-0.086,0.654-0.121,0.976c-1.831,4.911-4.41,8.33-6.529,10.149c0.081-0.809,0.203-1.753,0.38-2.845
					c1.039-6.407,3.361-14.022,5.056-19.588c0.926-3.039,1.659-5.44,2.085-7.285c0.536-2.318,0.238-4.772-0.829-7.021
					c2.103-1.106,3.747-2.964,4.509-5.349l0.233-0.731c1.707-5.356-1.405-11.533-6.949-13.771c-1.176-0.473-2.392-0.74-3.616-0.796
					c-4.391-0.2-8.212,2.397-9.51,6.462l-0.234,0.731c-0.82,2.575-0.518,5.335,0.623,7.76c-1.695,0.889-3.076,2.278-3.951,4.02
					c-1.313-11.846-5.915-23.289-13.406-32.169c-9.535-11.303-23.125-17.907-38.269-18.597c-2.674-0.122-5.423-0.062-8.171,0.178
					c-27.866,2.434-56.8,20.938-72.002,46.046c-2.871,4.743-1.114,11.324,3.916,14.669c1.745,1.16,3.727,1.822,5.732,1.914
					c3.599,0.164,6.813-1.498,8.6-4.448c12.303-20.322,35.43-35.274,57.549-37.206c1.924-0.169,3.81-0.212,5.607-0.13
					c8.904,0.406,16.151,3.851,21.541,10.24c7.667,9.089,10.342,22.965,6.816,35.353c-7.893,27.721-31.325,50.754-61.153,60.108
					c-2.542,0.797-5.021,1.167-7.171,1.069c-1.596-0.073-4.473-0.486-5.806-2.439c-1.847-2.705-0.589-7.362,3.058-11.325
					c3.546-3.852,7.781-7.23,12.535-10.024l-0.211,2.04c-0.284,2.757,0.536,5.564,2.309,7.903c1.774,2.341,4.288,3.932,7.061,4.478
					c0.534,0.106,1.076,0.173,1.614,0.198c5.219,0.238,9.39-3.319,9.918-8.455l1.453-14.106c4.86-0.82,9.795-1.121,14.722-0.896
					c0,0,0.942,0.048,0.98,0.049c5.774,0.168,10.118-4.193,9.891-9.929c-0.23-5.795-5.125-10.774-10.926-11.101l-0.802-0.04
					c-3.876-0.177-7.763-0.103-11.63,0.217l3.434-33.333c0.284-2.757-0.536-5.564-2.309-7.903c-1.774-2.34-4.288-3.932-7.064-4.479
					c-0.536-0.107-1.08-0.173-1.616-0.198c-5.218-0.238-9.387,3.319-9.914,8.455l-4.332,42.051
					c-12.284,4.272-22.998,11.14-31.171,20.018c-10.222,11.104-11.785,25.664-3.982,37.093c5.238,7.672,13.931,12.331,23.851,12.783
					c0.001,0,0.002,0,0.002,0c4.51,0.204,9.248-0.461,14.082-1.977c17.081-5.357,32.422-14.537,44.836-26.335
					c-3.852,10.561-5.251,23.835-0.312,33.029c3.411,6.348,8.559,10.933,14.896,13.26c0.4,0.147,0.805,0.284,1.213,0.412
					c-10.217,4.836-22.536,11.615-22.827,24.979c-0.109,5.056,1.899,10.199,5.456,14.221c-4.756,0.996-8.958,3.486-12.539,6.527
					c-1.683-2.593-4.381-4.566-7.557-5.206c-0.536-0.106-1.079-0.173-1.615-0.198c-5.201-0.237-9.373,3.302-9.921,8.419
					c-0.033,0.306-3.315,30.759-7.566,45.781c-1.536,5.423,1.758,11.517,7.346,13.586c1.082,0.4,2.197,0.629,3.314,0.68
					c4.538,0.207,8.396-2.516,9.599-6.771c2.926-10.34,4.687-16.137,9.716-24.739c9.573-16.381,14.526-17.462,15.816-17.403
					c0.061,0.003,0.128,0.008,0.201,0.022c0.227,2.386-0.898,7.892-1.354,10.124c-0.373,1.827-0.726,3.554-1.008,5.319
					c-0.214,1.34-0.451,2.773-0.713,4.357c-1.94,11.716-3.245,20.346-2.752,26.835c-1.434-1.609-3.27-2.803-5.323-3.436
					c-0.897-0.278-1.816-0.44-2.73-0.482c-4.743-0.216-8.75,2.804-9.742,7.344c-0.706,3.227-3.123,6.054-6.159,7.203
					c-1.241,0.469-2.661,0.684-4.107,0.618c-2.045-0.093-4.018-0.727-5.555-1.785c-2.674-1.841-5.023-5.542-6.794-10.705
					c-0.783-2.283-1.443-4.699-2.146-7.271c-1.1-4.021-2.237-8.178-4.016-12.475c-3.85-9.299-9.977-16.518-17.39-20.553
					c2.72-1.99,5.481-3.961,8.272-5.903c19.11-13.304,42.07-33.932,49.2-51.929c0.998-2.521,0.915-5.375-0.233-8.039
					c-1.149-2.665-3.226-4.819-5.839-6.061c-1.372-0.655-2.81-1.02-4.273-1.086c-4.161-0.19-7.808,2.106-9.29,5.848
					c-4.556,11.5-21.687,29.023-42.629,43.602c-0.925,0.644-1.846,1.29-2.761,1.937c0.276-2.335,0.516-4.519,0.739-6.551
					c0.279-2.537,0.534-4.857,0.801-7.013c3.376-1.299,6.271-2.606,8.783-3.962c0.211-0.113,21.083-11.559,20.127-26.672
					c-0.363-5.73-3.693-10.784-9.137-13.866c-2.378-1.345-5.026-2.093-7.871-2.222c-8.459-0.385-17.596,4.791-23.279,13.19
					c-3.453,5.104-5.796,10.474-7.404,17.049c-2.551,0.786-5.194,1.564-7.777,2.325c-18.196,5.359-38.82,11.434-49.646,25.958
					c-4.06,5.446-8.81,14.012-8.387,23.906c0.249,5.794,5.158,10.76,10.944,11.068c0.018,0.001,0.132,0.006,0.171,0.007
					c5.785,0.167,10.122-4.21,9.876-9.962c-0.131-3.063,1.609-7.33,4.656-11.417c6.697-8.984,21.681-13.87,36.777-18.347
					c-0.794,6.971-1.856,15.232-3.813,25.104c-6.799,5.595-13.334,11.382-19.451,17.224c-0.927,0.886-1.883,1.784-2.856,2.698
					l-0.211,0.197c-11.142,10.462-25.009,23.484-24.529,41.702c0.263,9.985,6.057,19.718,14.761,24.796
					c3.678,2.146,7.597,3.328,11.648,3.512c5.051,0.23,10.08-1.156,14.541-4.007c10.935-6.987,15.125-24.228,23.675-65.391
					c0.871-0.179,1.778-0.254,2.661-0.213c1.021,0.046,1.977,0.253,2.693,0.581c3.854,1.767,6.286,6.826,7.153,8.918
					c1.229,2.968,2.132,6.273,3.096,9.804c0.76,2.777,1.546,5.65,2.559,8.603c3.477,10.142,8.816,17.747,15.869,22.605
					c5.031,3.462,11.201,5.525,17.381,5.807c4.192,0.191,8.355-0.445,12.038-1.84c8.988-3.403,15.597-11.121,17.68-20.646
					c0.042-0.19,0.065-0.383,0.096-0.575c0.557,0.823,1.186,1.6,1.929,2.313c2.787,2.673,6.313,4.236,9.928,4.401
					c1.612,0.073,3.215-0.129,4.766-0.601c7.33-2.234,12.448-10.294,15.594-17.198c3.049,1.667,6.409,2.608,9.967,2.77
					c0.924,0.042,1.867,0.03,2.797-0.035c8.645-0.604,18.757-6.967,23.834-22.517c0.268,6.317,2.029,11.424,5.312,15.481
					c3.643,4.506,8.548,7.12,13.813,7.36c0.205,0.009,0.411,0.015,0.582,0.016c3.849,0.059,7.415-1.161,10.492-3.005
					c2.333,4.924,6.373,8.613,11.327,10.269c1.538,0.514,3.119,0.811,4.7,0.884c4.066,0.185,8.063-1.156,11.256-3.778
					c6.38-5.244,11.43-15.159,15.011-29.468c2.679-10.707,4.011-22.001,4.337-28.418c0.142-2.782-0.816-5.557-2.698-7.814
					c-1.882-2.258-4.462-3.726-7.242-4.131c-0.367-0.054-0.73-0.09-1.09-0.107c-5.4-0.246-9.678,3.616-9.953,8.984
					c-0.566,11.133-3.617,27.985-8.175,37.725c-0.042-1.382-0.006-2.776,0.113-4.118c0.387-4.327,1.861-14.397,2.164-16.442
					c0.8-5.37-2.801-10.882-8.196-12.551c-0.899-0.278-1.819-0.439-2.733-0.481c-4.503-0.205-8.351,2.488-9.575,6.702
					c-1.216,4.168-5.369,17.095-8.407,21.665c-0.007,0.011-0.016,0.022-0.023,0.034c0.04-0.68,0.108-1.445,0.214-2.305
					c1.255-10.223,6.638-29.707,6.69-29.892c0,0,0.045-0.167,0.053-0.201c0.083-0.322,0.14-0.64,0.182-0.97
					c0.059-0.343,0.1-0.684,0.113-0.96c0.021-0.36,0.015-0.714-0.008-1.085c-0.011-0.352-0.039-0.703-0.081-0.988
					c-0.052-0.375-0.132-0.743-0.204-1.011c-0.079-0.353-0.172-0.701-0.283-1.024c-0.119-0.352-0.261-0.692-0.384-0.948
					c-0.137-0.323-0.288-0.642-0.474-0.978c-0.166-0.297-0.347-0.581-0.55-0.869c-0.203-0.311-0.418-0.61-0.599-0.829
					c-0.223-0.277-0.466-0.54-0.729-0.805c-0.24-0.254-0.488-0.499-0.778-0.75c-0.266-0.229-0.548-0.443-0.849-0.651
					c-0.294-0.218-0.595-0.423-0.906-0.605c-0.31-0.181-0.636-0.345-0.9-0.462c-0.257-0.131-0.585-0.286-0.932-0.412
					c-0.052-0.02-0.2-0.072-0.223-0.08c-0.464-0.163-0.854-0.254-1.089-0.305c-0.305-0.08-0.615-0.146-0.967-0.2
					c-0.298-0.043-0.593-0.069-0.887-0.082l-0.401-0.017c-0.211-0.01-0.516-0.011-0.726-0.001c-0.511,0.023-0.921,0.092-1.146,0.132
					c-0.291,0.041-0.576,0.094-0.818,0.157c-0.362,0.09-0.712,0.208-1.056,0.343c-0.285,0.1-0.562,0.214-0.809,0.337
					c-0.313,0.153-0.612,0.33-0.836,0.479c-0.254,0.152-0.5,0.315-0.802,0.545c-0.264,0.209-0.512,0.435-0.701,0.631
					c-0.227,0.212-0.443,0.432-0.697,0.733c-0.213,0.258-0.405,0.533-0.535,0.743c-0.201,0.289-0.387,0.588-0.54,0.888
					c-0.147,0.284-0.276,0.586-0.385,0.881c-0.125,0.293-0.234,0.591-0.32,0.894c-0.016,0.054-0.053,0.192-0.067,0.246
					c-0.89,3.449-2.897,6.334-5.361,8.552c-0.706-2.166-1.687-4.097-2.947-5.814c-2.797-3.815-6.865-6.336-11.432-7.095
					c-0.65-0.109-1.309-0.18-1.956-0.21c-2.897-0.132-5.69,0.55-8.14,1.957c-0.255-0.072-0.511-0.135-0.77-0.189
					c-0.939-0.193-1.89-0.311-2.83-0.354c-9.121-0.416-15.891,5.94-20.187,13.418c-0.98-3.25-2.717-6.345-5.515-9.014
					C247.979,345.663,255.599,333.122,258.823,321.994z M101.385,433.732c-1.151,0.735-2.219,1.103-3.088,1.064
					c-0.476-0.022-0.939-0.168-1.41-0.442c-1.675-0.978-2.932-3.246-2.989-5.395c-0.245-9.319,9.577-18.645,18.376-26.909
					C108.741,417.651,104.923,431.472,101.385,433.732z M257.122,377.607c0.449-2.489,1.285-4.71,2.228-6.54
					c1.898,3.597,4.758,6.526,8.339,8.546c-1.863,5.824-4.876,10.308-7.408,10.486c-0.139,0.01-0.275,0.013-0.406,0.007
					c-0.175-0.008-0.26-0.029-0.271-0.029c-0.001,0-0.001,0-0.001,0c-0.015-0.011-0.084-0.061-0.205-0.196
					C257.667,387.968,256.295,382.192,257.122,377.607z M295.542,298.921c-2.544,2.949-5.21,3.971-6.377,3.918
					c-0.001,0-0.003,0-0.004,0c-0.238-0.028-0.869-0.49-1.667-1.64c-0.344-0.958-0.518-4.536,1.117-9.704
					c0.746-2.36,1.725-4.599,2.823-6.522c0.494,0.887,1.065,1.746,1.709,2.57c1.589,2.033,3.6,3.807,5.889,5.233
					C297.695,295.708,296.345,297.989,295.542,298.921z M290.38,209.61c0.811-1.195,2.485-2.536,3.763-3.228
					c2.076,2.262,4.927,3.644,7.927,3.78c0.093,0.004,0.186,0.007,0.279,0.009c-0.015,0.204-0.029,0.407-0.044,0.613
					c-2.483,3.274-4.795,5.924-6.741,7.72c-3.727,3.439-7.044,4.931-8.55,4.863c-0.133-0.006-0.188-0.024-0.216-0.04
					C285.907,222.118,286.586,215.193,290.38,209.61z M238.215,283.907c-0.61-0.028-1.17-0.13-1.617-0.293
					c-0.363-0.133-1.211-0.445-2.104-2.105c-1.001-2.071-0.621-10.662,3.005-18.489c1.136-2.451,1.204-5.292,0.193-8
					c-1.012-2.709-2.984-4.96-5.542-6.332c-1.497-0.806-3.15-1.271-4.782-1.345c-0.656-0.03-1.29,0.022-1.913,0.109
					c4.913-5.928,9.16-12.331,12.626-19.102c0.411,6.536,2.648,12.166,8.049,15.863c3.537,2.42,7.51,3.796,11.492,3.978
					c2.09,0.095,4.189-0.132,6.236-0.676c4.903-1.299,8.874-4.174,11.967-7.37c3.671,2.607,7.852,4.079,12.182,4.277
					c5.2,0.237,10.581-1.351,15.85-4.639c2.573,10.028,7.671,16.616,15.238,19.652c1.794,0.72,3.622,1.199,5.454,1.438
					c-0.303,0.441-0.581,0.905-0.811,1.407c-0.727,1.588-1.955,3.968-3.167,5.979c-0.57-0.872-1.211-1.697-1.922-2.474
					c-3.168-3.46-7.412-5.479-11.948-5.686c-1.683-0.077-3.367,0.103-5.007,0.532c-2.69,0.705-5.1,2.007-7.073,3.73
					c-2.004-1.823-4.55-2.91-7.168-3.029c-2.491-0.113-4.863,0.669-6.683,2.205c-2.004,1.695-3.902,3.812-5.651,6.3
					c-0.122,0.122-0.241,0.246-0.354,0.373c0.298-2.55,0.256-4.996-0.222-7.2c-1.27-5.878-5.663-10.344-11.194-11.379
					c-0.492-0.092-0.991-0.15-1.483-0.172c-4.671-0.213-8.664,2.744-9.714,7.204c-0.065,0.28-2.876,12.229-5.066,21.406
					c-1.058,1.142-2.13,1.988-3.144,2.479C241.962,283.502,239.928,283.985,238.215,283.907z"/>
				<path style="fill:#252654;" d="M426.52,218.493c-6.887-11.192-18.725-18.489-30.895-19.044
					c-1.052-0.048-2.113-0.045-3.156,0.009c-13.833,0.723-24.347,9.73-28.847,24.716c-1.617,5.392,1.591,11.525,7.153,13.673
					c1.128,0.435,2.292,0.683,3.463,0.736c4.466,0.203,8.307-2.457,9.558-6.622c1.238-4.122,4.411-11.094,11.768-11.478
					c0.377-0.02,0.764-0.022,1.148-0.005c4.712,0.215,9.391,3.194,12.211,7.777c9.85,16.005,4.519,41.851-16.297,79.011
					c-12.276,21.916-18.479,39.321-19.522,54.776c-0.386,5.728,4.002,11.152,9.801,12.094c0.409,0.065,0.814,0.107,1.214,0.125
					c5.315,0.242,9.593-3.546,9.949-8.814c0.837-12.426,6.277-27.23,17.119-46.584C436.252,274.118,441.124,242.225,426.52,218.493z
					"/>
				<path style="fill:#252654;" d="M384.611,378.846c-0.447-0.077-0.9-0.128-1.348-0.148c-5.257-0.24-9.53,3.503-9.937,8.705
					l-0.071,0.902c-0.216,2.77,0.669,5.562,2.494,7.863c1.825,2.301,4.37,3.835,7.172,4.319c0.444,0.077,0.895,0.126,1.341,0.146
					c5.26,0.24,9.533-3.502,9.941-8.703l0.071-0.902c0.216-2.77-0.669-5.562-2.494-7.863
					C389.954,380.864,387.408,379.33,384.611,378.846z"/>
			</g>
			<g>
				<g>
					<g>
						<g>
							<path style="fill:#E1564F;" d="M254.906,239.454c-2.759-0.126-5.417-1.052-7.904-2.754c-8.7-5.954-4.403-22.908,1.188-41.248
								c0.831-2.729,1.529-5.02,1.844-6.385c0.402-1.739,1.955-2.896,3.776-2.813c0.37,0.017,0.743,0.085,1.107,0.202
								c1.064,0.341,1.971,1.066,2.555,2.042c0.583,0.976,0.771,2.085,0.532,3.124c-0.38,1.646-1.086,3.96-1.979,6.889
								c-1.746,5.73-4.134,13.569-5.239,20.378c-1.536,9.473,0.367,11.186,0.386,11.202c1.08,0.738,2.177,1.13,3.335,1.182
								c0.64,0.029,1.312-0.048,1.997-0.229c4.784-1.269,9.941-7.36,12.834-15.158c0.557-1.502,1.987-2.425,3.644-2.349
								c0.537,0.025,1.069,0.154,1.578,0.384c1.027,0.465,1.851,1.286,2.318,2.315c0.467,1.029,0.522,2.14,0.155,3.13
								c-2.964,7.989-9.182,17.336-17.747,19.607c-1.45,0.385-2.922,0.547-4.375,0.48L254.906,239.454z"/>
							<path style="fill:#E1564F;" d="M254.88,238.87c-2.625-0.119-5.193-1.008-7.582-2.643c-8.337-5.705-4.071-22.44,1.451-40.556
								c0.821-2.696,1.531-5.024,1.854-6.421c0.425-1.841,2.297-2.845,4.185-2.239c1.886,0.604,3.072,2.588,2.646,4.428
								c-0.373,1.616-1.077,3.928-1.969,6.854c-1.749,5.74-4.145,13.602-5.256,20.449c-1.64,10.114,0.554,11.745,0.648,11.809
								c1.85,1.267,3.761,1.611,5.845,1.059c4.939-1.31,10.237-7.529,13.185-15.476c0.65-1.754,2.657-2.506,4.476-1.685
								c1.821,0.823,2.77,2.913,2.119,4.667c-2.919,7.869-9.022,17.069-17.396,19.29C257.68,238.781,256.272,238.934,254.88,238.87z
								"/>
						</g>
						<g>
							<path style="fill:#E1564F;" d="M258.114,181.299c-0.475-0.022-0.949-0.127-1.41-0.312c-2.152-0.869-3.363-3.271-2.699-5.355
								l0.232-0.729c0.504-1.581,1.992-2.591,3.699-2.513c0.476,0.022,0.95,0.126,1.409,0.311c2.152,0.869,3.363,3.271,2.699,5.355
								l-0.233,0.729C261.307,180.366,259.821,181.376,258.114,181.299z"/>
							<path style="fill:#E1564F;" d="M258.085,180.714c-0.398-0.018-0.806-0.106-1.21-0.268c-1.848-0.746-2.883-2.801-2.313-4.59
								l0.233-0.729c0.571-1.789,2.53-2.631,4.379-1.887c1.848,0.746,2.883,2.801,2.313,4.59l-0.232,0.729
								C260.808,179.958,259.512,180.779,258.085,180.714z"/>
						</g>
					</g>
					<g>
						<path style="fill:#5478B8;" d="M174.368,246.368c-0.206-0.009-0.414-0.034-0.625-0.076c-1.084-0.214-2.062-0.833-2.751-1.743
							c-0.69-0.91-1.009-2.001-0.898-3.074l7.122-69.139c0.201-1.965,1.856-3.38,3.849-3.289c0.207,0.009,0.417,0.035,0.63,0.077
							c1.084,0.214,2.062,0.833,2.751,1.742c0.69,0.91,1.009,2.001,0.898,3.074l-7.122,69.139
							C178.02,245.046,176.363,246.459,174.368,246.368z"/>
						<path style="fill:#5478B8;" d="M174.339,245.784c-0.176-0.008-0.355-0.029-0.535-0.065c-1.924-0.379-3.325-2.227-3.129-4.128
							l7.122-69.139c0.195-1.9,1.914-3.137,3.838-2.753c1.924,0.379,3.325,2.227,3.129,4.128l-7.122,69.139
							C177.464,244.688,176.037,245.862,174.339,245.784z"/>
					</g>
					<g>
						<path style="fill:#5478B8;" d="M154.872,276.597c-7.716-0.352-14.401-3.862-18.34-9.631
							c-6.001-8.789-4.548-20.258,3.701-29.219c14.239-15.467,36.67-24.067,60.003-23.004l0.758,0.038
							c2.252,0.127,4.156,2.063,4.246,4.317c0.088,2.23-1.626,3.925-3.904,3.859l-0.895-0.046
							c-20.985-0.956-41.159,6.778-53.965,20.689c-5.736,6.232-7.048,13.768-3.34,19.199c2.306,3.378,6.325,5.363,11.318,5.591
							c2.908,0.133,6.032-0.317,9.285-1.338c31.624-9.917,56.493-34.428,64.903-63.966c4.102-14.408,0.857-30.706-8.268-41.522
							c-4.636-5.497-13.014-12.178-26.599-12.797c-2.077-0.095-4.245-0.045-6.445,0.147c-23.874,2.086-48.776,18.123-61.964,39.908
							c-0.695,1.147-1.946,1.793-3.347,1.729c-0.778-0.035-1.548-0.293-2.226-0.744c-1.956-1.301-2.639-3.86-1.523-5.705
							c14.316-23.645,41.476-41.064,67.585-43.344c2.473-0.216,4.941-0.27,7.335-0.161c13.389,0.61,24.873,6.157,33.211,16.041
							c10.98,13.016,14.951,32.396,10.117,49.374c-9.068,31.851-35.767,58.243-69.676,68.878
							C162.682,276.193,158.655,276.768,154.872,276.597L154.872,276.597z"/>
						<path style="fill:#5478B8;" d="M154.843,276.013c-8.517-0.388-14.578-4.568-17.839-9.344
							c-5.837-8.55-4.395-19.738,3.675-28.503c14.354-15.592,36.951-24.074,60.34-22.8c1.932,0.109,3.561,1.765,3.638,3.7
							c0.077,1.935-1.426,3.363-3.36,3.307c-21.525-1.227-42.159,6.571-55.266,20.81c-5.916,6.427-7.238,14.244-3.366,19.914
							c3.882,5.687,12.042,7.418,21.296,4.515c31.787-9.969,56.787-34.613,65.244-64.317c4.154-14.591,0.858-31.109-8.4-42.083
							c-5.668-6.719-16.098-14.409-33.58-12.88c-24.034,2.099-49.096,18.235-62.365,40.153c-0.959,1.583-3.099,1.96-4.777,0.845
							c-1.68-1.117-2.264-3.306-1.305-4.89c14.235-23.512,41.233-40.833,67.183-43.099c16.102-1.405,30.311,4.152,40.01,15.649
							c10.847,12.858,14.767,32.019,9.984,48.813c-9.021,31.686-35.589,57.943-69.335,68.527
							C162.293,275.686,158.358,276.172,154.843,276.013z"/>
					</g>
					<g>
						<path style="fill:#D9504B;" d="M226.678,341.375c-2.915-0.133-5.817-1.344-8.169-3.413c-3.22-2.83-5.091-6.875-5.006-10.819
							c0.237-10.868,12.38-16.518,22.137-21.056c2.426-1.128,4.712-2.191,6.381-3.158c1.278-0.74,2.593-1.514,3.936-2.33
							c0.317-1.329,1.529-6.447,1.529-6.447c-3.585,1.498-7.351,2.2-10.963,2.036c-2.16-0.098-4.227-0.505-6.144-1.207
							c-4.64-1.704-8.438-5.111-10.986-9.855c-4.321-8.043-2.076-21.978,2.375-31.583c0.629-1.357,1.983-2.155,3.533-2.084
							c0.641,0.029,1.266,0.206,1.856,0.523c0.997,0.535,1.763,1.41,2.157,2.464c0.394,1.053,0.367,2.158-0.075,3.111
							c-4.023,8.683-5.248,19.558-2.731,24.243c1.471,2.739,3.495,4.598,6.016,5.522c1.109,0.407,2.328,0.644,3.625,0.703
							c2.754,0.125,5.737-0.545,8.625-1.938c2.034-0.982,4.001-2.631,5.848-4.902c2.239-9.363,5.36-22.635,5.401-22.811
							c0.407-1.731,1.96-2.881,3.777-2.798c0.19,0.009,0.383,0.031,0.578,0.067c2.77,0.518,4.829,2.699,5.507,5.834
							c1.258,5.806-2.1,16.22-7.649,23.751c-0.568,2.368-1.06,4.401-1.403,5.786c-0.234,0.945-0.465,1.891-0.692,2.839
							c8.927-6.52,15.783-13.424,20.928-21.07c0.709-1.053,1.925-1.646,3.254-1.586c0.842,0.038,1.666,0.333,2.381,0.852
							c0.923,0.669,1.564,1.635,1.805,2.72c0.241,1.085,0.054,2.158-0.529,3.022c-7.041,10.465-17.109,19.74-30.772,28.348
							c-1.085,4.444-2.026,8.014-2.955,11.221c-2.849,9.837-10.07,21.989-21.045,23.86
							C228.381,341.361,227.53,341.414,226.678,341.375z M243.077,311.956c-1.114,0.54-2.284,1.085-3.425,1.614
							c-7.531,3.503-17.844,8.3-17.98,14.531c-0.03,1.38,0.692,2.887,1.883,3.934c0.57,0.501,1.5,1.11,2.688,1.164
							c0.281,0.013,0.57-0.006,0.858-0.055c7.125-1.215,12.919-10.567,15.286-18.742
							C242.621,313.59,242.851,312.774,243.077,311.956z"/>
						<path style="fill:#D9504B;" d="M226.649,340.791c-2.767-0.126-5.508-1.255-7.78-3.252c-3.076-2.704-4.864-6.565-4.783-10.327
							c0.23-10.539,12.216-16.113,21.847-20.594c2.433-1.131,4.731-2.2,6.415-3.175c1.339-0.775,2.718-1.588,4.126-2.446
							c0.335-1.4,0.665-2.794,0.992-4.178c0.293-1.237,0.586-2.474,0.88-3.71c-5.966,2.81-12.445,3.293-17.815,1.326
							c-4.485-1.647-8.161-4.947-10.63-9.545c-4.226-7.867-1.992-21.58,2.4-31.06c0.783-1.688,2.851-2.289,4.619-1.338
							c1.768,0.949,2.568,3.09,1.785,4.779c-4.088,8.824-5.302,19.936-2.706,24.767c1.551,2.887,3.694,4.85,6.371,5.832
							c3.646,1.338,8.273,0.882,12.695-1.252c2.289-1.105,4.332-2.941,6.096-5.13c2.242-9.371,5.389-22.754,5.43-22.931
							c0.392-1.666,1.989-2.664,3.733-2.339c2.503,0.468,4.369,2.461,4.989,5.33c1.184,5.467-1.968,15.761-7.622,23.389
							c-0.579,2.411-1.08,4.482-1.427,5.887c-0.368,1.487-0.728,2.979-1.084,4.471c8.01-5.687,16.135-12.872,22.381-22.154
							c1.031-1.533,3.195-1.816,4.83-0.629c1.636,1.186,2.126,3.389,1.095,4.922c-8.586,12.76-20.291,21.712-30.795,28.312
							c-0.928,3.803-1.907,7.634-2.999,11.404c-2.808,9.694-9.897,21.663-20.634,23.494
							C228.259,340.78,227.452,340.827,226.649,340.791z M244.005,310.821c-1.427,0.72-3.004,1.455-4.639,2.215
							c-7.653,3.56-18.135,8.435-18.278,14.997c-0.034,1.558,0.773,3.255,2.105,4.425c0.85,0.747,2.243,1.572,4.056,1.263
							c7.345-1.252,13.287-10.783,15.698-19.108C243.311,313.358,243.663,312.093,244.005,310.821z"/>
					</g>
					<g>
						<path style="fill:#F4E7CD;" d="M334.827,318.756c-2.616-0.119-5.171-0.867-7.386-2.165c-3.96-2.318-6.779-6.246-7.935-11.057
							c-1.25-5.199-0.887-11.981,1.114-20.697c-2.242,1.313-4.572,2.214-6.945,2.686c-0.145,0.532-0.299,1.072-0.465,1.62
							c-2.049,6.784-5.682,14.193-8.637,17.619c-4.829,5.597-11.028,8.652-17.008,8.379c-0.384-0.017-0.766-0.049-1.146-0.094
							c-3.59-0.431-8.804-2.33-13.251-8.927c-3.251-4.821-3.74-12.497-1.343-21.058c2.18-7.781,6.276-14.791,10.962-18.755
							c0.706-0.597,1.629-0.901,2.598-0.857c1.198,0.055,2.355,0.629,3.177,1.576c1.547,1.783,1.473,4.359-0.166,5.745
							c-7.41,6.269-12.471,23.478-8.594,29.228c1.997,2.962,4.289,4.617,6.814,4.919c0.184,0.023,0.37,0.039,0.557,0.047
							c3.518,0.16,7.734-2.095,11.005-5.885c1.85-2.146,4.847-7.801,6.8-13.743c-3.801-0.936-7.168-3.01-9.317-5.758
							c-1.889-2.418-2.74-5.191-2.461-8.022c0.409-4.13,3.81-7.831,8.271-8.999c1.046-0.274,2.11-0.389,3.162-0.341
							c2.703,0.123,5.22,1.315,7.09,3.356c2.322,2.536,3.472,6.079,3.423,10.544c2.954-1.512,5.078-3.685,5.902-4.608
							c2.393-2.687,5.274-8.424,6.182-10.408c0.625-1.366,1.981-2.171,3.538-2.1c0.572,0.026,1.134,0.17,1.671,0.428
							c2.043,0.979,3.102,3.316,2.41,5.322c-3.626,10.507-9.694,28.095-7.408,37.603c0.579,2.407,1.824,4.228,3.599,5.268
							c1.006,0.589,2.138,0.916,3.365,0.972c1.135,0.052,2.313-0.131,3.501-0.543c5.86-2.032,9.475-6.661,12.895-16.514
							c2.246-6.47,4.232-12.486,5.9-17.879c0.467-1.635,0.956-3.269,1.435-4.873l0.552-1.849c0.483-1.625,1.978-2.665,3.719-2.586
							c0.433,0.02,0.865,0.109,1.288,0.265c2.146,0.793,3.432,3.143,2.87,5.236c-0.005,0.019-0.602,2.256-1.992,6.758
							c-1.945,6.847-4.273,16.388-2.008,20.039c0.306,0.494,0.802,1.039,2.165,1.341c0.597,0.132,1.2,0.212,1.787,0.239
							c7.977,0.363,12.635-9.155,12.681-9.25c0.631-1.339,1.982-2.13,3.526-2.059c0.647,0.029,1.275,0.208,1.868,0.53
							c2.05,1.111,2.978,3.609,2.066,5.567c-0.267,0.572-6.667,14.003-19.594,13.415c-1.097-0.05-2.225-0.201-3.354-0.452
							c-3.229-0.715-5.847-2.423-7.612-4.958c-3.705,8.031-8.196,12.482-14.879,14.798
							C339.136,318.538,336.985,318.854,334.827,318.756z M305.061,272.389c-0.246-0.011-0.526,0.024-0.832,0.104
							c-1.651,0.432-2.819,1.849-2.898,2.634c-0.063,0.649,0.115,1.204,0.578,1.795c0.952,1.217,2.863,2.231,4.897,2.603
							c0.441-3.785-0.139-5.958-0.854-6.739C305.831,272.656,305.61,272.414,305.061,272.389z"/>
						<path style="fill:#F4E7CD;" d="M334.798,318.172c-2.503-0.114-4.939-0.814-7.1-2.079c-3.802-2.226-6.51-6.006-7.625-10.643
							c-1.456-6.053-0.544-13.683,1.467-21.906c-2.271,1.512-5.081,2.872-8.345,3.465c-0.167,0.626-0.349,1.266-0.545,1.917
							c-2.03,6.722-5.62,14.053-8.533,17.43c-5.008,5.804-11.618,8.839-17.684,8.109c-3.458-0.415-8.484-2.25-12.792-8.641
							c-3.147-4.668-3.604-12.161-1.253-20.557c2.152-7.683,6.188-14.6,10.799-18.5c1.405-1.186,3.622-0.914,4.95,0.616
							c1.328,1.53,1.264,3.735-0.142,4.924c-7.734,6.543-12.758,23.918-8.667,29.985c2.109,3.128,4.556,4.88,7.274,5.205
							c3.811,0.463,8.436-1.846,12.032-6.014c1.988-2.305,5.138-8.311,7.108-14.562c-3.895-0.805-7.461-2.897-9.634-5.677
							c-1.787-2.285-2.591-4.905-2.328-7.577c0.388-3.916,3.631-7.429,7.887-8.544c3.562-0.933,7.169,0.12,9.643,2.821
							c2.389,2.609,3.463,6.336,3.221,11.134c3.488-1.528,6.004-4.076,6.968-5.158c2.435-2.734,5.348-8.533,6.265-10.536
							c0.75-1.638,2.717-2.273,4.465-1.432c1.747,0.837,2.658,2.846,2.066,4.561c-3.646,10.566-9.747,28.25-7.421,37.925
							c0.622,2.583,1.973,4.548,3.91,5.681c2.101,1.23,4.715,1.402,7.36,0.486c6.028-2.09,9.733-6.808,13.211-16.831
							c2.704-7.788,4.632-13.783,5.904-17.897c0.478-1.672,0.975-3.332,1.462-4.961l0.527-1.766c0.53-1.786,2.441-2.673,4.292-1.99
							c1.848,0.684,2.945,2.684,2.46,4.488c-0.047,0.177-0.656,2.427-1.988,6.739c-2.19,7.71-4.27,16.77-1.935,20.533
							c0.356,0.575,0.972,1.282,2.58,1.637c9.582,2.113,15.017-9.176,15.071-9.289c0.792-1.681,2.866-2.268,4.624-1.314
							c1.762,0.955,2.556,3.087,1.772,4.771c-0.303,0.652-7.609,15.944-22.341,12.68c-3.283-0.727-5.896-2.527-7.558-5.208
							c-0.083-0.132-0.162-0.267-0.239-0.403c-3.74,8.525-8.296,13.142-15.003,15.466
							C338.951,317.965,336.852,318.266,334.798,318.172z M305.032,271.804c-0.279-0.013-0.609,0.019-1,0.122
							c-1.799,0.471-3.173,2.006-3.281,3.088c-0.079,0.807,0.147,1.518,0.712,2.241c1.068,1.367,3.201,2.493,5.432,2.869
							c0.141,0.023,0.282,0.045,0.421,0.064c0.576-4.223-0.03-6.766-0.954-7.775C306.214,272.251,305.838,271.841,305.032,271.804z"
							/>
					</g>
					<g>
						<path style="fill:#E8C023;" d="M186.213,433.777c-4.925-0.224-9.816-1.848-13.773-4.572
							c-5.727-3.944-10.133-10.325-13.096-18.967c-0.942-2.746-1.698-5.51-2.429-8.185c-1.024-3.745-1.983-7.256-3.381-10.632
							c-1.486-3.588-4.873-10.017-10.857-12.76c-1.528-0.701-3.335-1.117-5.225-1.203c-4.278-0.195-8.532,1.25-11.101,3.768
							c-0.728,0.716-1.719,1.083-2.79,1.034c-1.109-0.051-2.169-0.537-2.983-1.369c-1.652-1.685-1.751-4.277-0.219-5.779
							c4.028-3.948,10.252-6.131,16.651-5.84c3.024,0.138,5.87,0.809,8.459,1.995c6.576,3.016,12.106,9.284,15.571,17.654
							c1.611,3.889,2.688,7.832,3.731,11.645c0.733,2.68,1.421,5.198,2.276,7.691c2.31,6.735,5.529,11.56,9.568,14.341
							c2.61,1.797,5.862,2.87,9.156,3.02c2.282,0.104,4.544-0.24,6.541-0.997c4.845-1.834,8.554-6.169,9.679-11.311
							c0.385-1.766,1.943-2.941,3.787-2.857c0.355,0.016,0.712,0.079,1.062,0.187c1.067,0.33,1.981,1.045,2.575,2.016
							c0.593,0.97,0.794,2.079,0.566,3.121c-1.669,7.631-6.962,13.814-14.159,16.539c-2.927,1.109-6.248,1.613-9.603,1.46
							L186.213,433.777z"/>
						<path style="fill:#E8C023;" d="M186.19,433.193c-4.733-0.215-9.5-1.74-13.451-4.46c-5.606-3.861-9.928-10.131-12.844-18.637
							c-0.939-2.736-1.695-5.502-2.426-8.175c-1.021-3.737-1.986-7.267-3.399-10.678c-1.523-3.678-5.003-10.272-11.193-13.11
							c-5.352-2.456-12.956-1.263-16.953,2.656c-1.314,1.289-3.53,1.162-4.949-0.287c-1.418-1.447-1.502-3.665-0.188-4.954
							c5.934-5.817,16.461-7.427,24.483-3.752c6.423,2.945,11.833,9.09,15.234,17.304c1.597,3.857,2.671,7.786,3.709,11.584
							c0.732,2.678,1.424,5.207,2.284,7.716c2.356,6.871,5.66,11.807,9.82,14.671c4.697,3.234,11.074,4.06,16.247,2.101
							c5.006-1.895,8.837-6.372,9.999-11.685c0.404-1.849,2.266-2.873,4.156-2.288c1.892,0.584,3.097,2.556,2.693,4.403
							c-1.631,7.46-6.805,13.503-13.839,16.166C192.641,432.877,189.423,433.341,186.19,433.193z"/>
					</g>
					<g>
						<path style="fill:#E8C023;" d="M96.591,447.072c-2.953-0.135-5.814-0.999-8.505-2.569
							c-6.581-3.839-10.963-11.245-11.164-18.867c-0.408-15.531,11.886-27.076,22.734-37.261l0.201-0.189
							c0.988-0.927,1.959-1.839,2.9-2.739c6.479-6.187,13.438-12.315,20.683-18.213c2.722-13.199,3.865-23.602,4.785-31.969
							c0.234-2.132,0.459-4.167,0.695-6.126c-2.083,0.634-4.21,1.26-6.362,1.895l-0.266,0.079
							c-17.052,5.021-34.684,10.214-42.979,21.343c-3.933,5.274-5.991,10.683-5.796,15.232c0.096,2.237-1.614,3.937-3.893,3.872
							c-2.265-0.12-4.174-2.052-4.271-4.306c-0.347-8.104,3.749-15.397,7.246-20.089c9.713-13.031,29.369-18.82,46.712-23.928
							c3.678-1.083,7.477-2.203,11.005-3.341c1.443-7.347,3.687-12.993,7.26-18.273c4.531-6.696,11.836-11,18.179-10.711
							c1.78,0.081,3.399,0.528,4.812,1.327c3.311,1.874,5.253,4.761,5.466,8.127c0.55,8.682-11.33,17.997-17.169,21.148
							c-3.025,1.634-6.703,3.207-11.234,4.803c-0.467,3.182-0.845,6.629-1.282,10.601c-0.674,6.125-1.502,13.645-2.993,22.509
							c4.895-3.728,10.065-7.49,15.388-11.195c22.108-15.392,39.629-33.505,44.637-46.147c0.576-1.456,1.995-2.349,3.613-2.275
							c0.567,0.026,1.125,0.167,1.659,0.423c1.019,0.484,1.826,1.321,2.273,2.358c0.447,1.036,0.479,2.146,0.091,3.126
							c-6.674,16.847-29.594,37.133-47.192,49.384c-8.106,5.644-15.813,11.392-22.91,17.089l-0.686,3.311
							c-8.58,41.464-12.886,62.271-22.583,68.468C104.203,446.172,100.38,447.244,96.591,447.072z M120.64,380.756
							c-4.108,3.558-8.124,7.208-11.957,10.869c-1.015,0.97-2.065,1.955-3.133,2.958c-9.745,9.151-20.779,19.51-20.46,31.62
							c0.12,4.543,2.766,9.093,6.585,11.322c1.456,0.849,2.989,1.316,4.554,1.387c2.162,0.099,4.373-0.565,6.572-1.969
							C109.462,432.689,113.974,412.829,120.64,380.756z M156.192,299.089c-2.573-0.117-7.815,1.799-11.713,7.558
							c-2.083,3.079-3.603,6.228-4.732,9.82c1.763-0.745,3.319-1.484,4.728-2.244c7.317-3.951,13.592-11.186,13.406-14.119
							c-0.011-0.173-0.025-0.388-0.794-0.823C157,299.231,156.738,299.114,156.192,299.089z"/>
						<path style="fill:#E8C023;" d="M96.562,446.487c-2.811-0.128-5.599-0.954-8.219-2.483
							c-6.388-3.727-10.642-10.922-10.837-18.328c-0.402-15.286,11.802-26.746,22.571-36.857c1.058-0.993,2.098-1.97,3.104-2.93
							c6.54-6.246,13.439-12.32,20.795-18.301c2.754-13.314,3.905-23.787,4.831-32.207c0.273-2.479,0.532-4.83,0.813-7.082
							c-2.457,0.754-4.98,1.497-7.539,2.251c-17.133,5.046-34.85,10.264-43.246,21.528c-4.005,5.372-6.1,10.905-5.899,15.579
							c0.083,1.936-1.388,3.375-3.349,3.318c-1.932-0.103-3.565-1.754-3.648-3.69c-0.34-7.942,3.697-15.12,7.143-19.742
							c9.611-12.895,29.181-18.659,46.447-23.744c3.9-1.149,7.711-2.272,11.305-3.438c1.28-6.657,3.273-12.518,7.238-18.38
							c5.789-8.555,15.976-12.788,22.25-9.239c3.11,1.761,4.933,4.461,5.132,7.605c0.533,8.419-11.156,17.546-16.9,20.646
							c-3.383,1.827-7.258,3.406-11.452,4.873c-0.487,3.264-0.883,6.858-1.331,10.933c-0.729,6.627-1.595,14.504-3.256,24.042
							c5.289-4.061,10.81-8.092,16.595-12.12c22.184-15.444,39.777-33.648,44.819-46.377c0.688-1.737,2.711-2.451,4.519-1.588
							c1.807,0.859,2.715,2.964,2.027,4.701c-6.632,16.74-29.469,36.941-47.01,49.153c-8.204,5.711-15.867,11.427-23.081,17.225
							l-0.723,3.495c-8.55,41.317-12.84,62.056-22.358,68.136C103.897,445.644,100.209,446.654,96.562,446.487z M121.584,379.136
							c-4.617,3.957-9.05,7.967-13.323,12.048c-1.018,0.973-2.07,1.961-3.141,2.966c-9.814,9.215-20.938,19.66-20.612,32.014
							c0.125,4.754,2.903,9.521,6.912,11.861c2.581,1.504,6.711,2.627,11.729-0.579
							C110.096,433.007,114.616,412.726,121.584,379.136z M156.163,298.504c-2.665-0.121-8.144,1.824-12.176,7.784
							c-2.47,3.65-4.053,7.242-5.173,11.217c2.154-0.868,4.159-1.781,5.976-2.762c6.993-3.775,13.894-11.154,13.675-14.622
							c-0.019-0.292-0.047-0.733-1.128-1.345C157.062,298.623,156.662,298.527,156.163,298.504z"/>
					</g>
					<g>
						<path style="fill:#6DB79E;" d="M227.89,417.431c-1.983-0.09-3.852-0.925-5.404-2.414c-4.069-3.904-3.033-13.279,0.111-32.273
							c0.264-1.598,0.503-3.041,0.719-4.391c0.261-1.638,0.601-3.302,0.962-5.064c1.748-8.556,2.671-14.783-1.366-17.156
							c-1.328-0.78-2.707-1.208-4.101-1.272c-8.128-0.37-15.943,11.349-21.113,20.197c-5.37,9.185-7.314,15.576-10.286,26.082
							c-0.468,1.657-1.968,2.714-3.732,2.635c-0.434-0.02-0.868-0.109-1.291-0.266c-2.172-0.805-3.453-3.174-2.856-5.283
							c4.401-15.555,7.727-46.481,7.76-46.791c0.213-1.989,1.836-3.366,3.859-3.274c0.207,0.009,0.418,0.035,0.631,0.078
							c2.241,0.452,3.871,2.617,3.635,4.828c-0.061,0.568-0.559,5.187-1.41,11.671c8.146-12.58,16.114-18.522,24.312-18.149
							c2.743,0.125,5.505,0.993,8.208,2.583c9.974,5.865,7.541,17.77,5.765,26.461c-0.344,1.686-0.67,3.278-0.906,4.757
							c-0.222,1.392-0.469,2.884-0.726,4.435c-1.012,6.112-3.316,20.021-2.597,24.324c2.907-1.384,10.629-13.448,12.002-27.901
							c0.188-1.985,1.844-3.412,3.851-3.321c0.197,0.009,0.397,0.032,0.6,0.072c1.085,0.204,2.066,0.816,2.762,1.722
							c0.696,0.905,1.023,1.995,0.921,3.068c-1.336,14.063-9.152,31.717-17.614,34.296
							C229.697,417.355,228.791,417.472,227.89,417.431z"/>
						<path style="fill:#6DB79E;" d="M227.86,416.846c-1.807-0.082-3.547-0.846-4.993-2.233c-3.847-3.691-2.803-12.942,0.305-31.721
							c0.254-1.536,0.498-3.012,0.719-4.393c0.26-1.632,0.601-3.298,0.961-5.061c1.796-8.788,2.726-15.209-1.683-17.802
							c-9.89-5.814-19.565,8.11-25.983,19.091c-5.402,9.24-7.354,15.658-10.338,26.205c-0.512,1.812-2.437,2.721-4.304,2.031
							c-1.865-0.691-2.961-2.718-2.449-4.529c4.401-15.553,7.745-46.571,7.778-46.883c0.203-1.899,1.929-3.121,3.85-2.739
							c1.923,0.387,3.318,2.239,3.115,4.138c-0.059,0.557-0.704,6.533-1.781,14.444c6.013-9.844,18.107-26.605,33.212-17.726
							c9.572,5.63,7.19,17.286,5.451,25.796c-0.346,1.692-0.672,3.29-0.91,4.78c-0.222,1.392-0.469,2.883-0.725,4.432
							c-1.174,7.091-3.579,21.622-2.439,25.189c2.917-0.039,11.553-13.266,13.001-28.508c0.181-1.903,1.89-3.155,3.813-2.785
							c1.925,0.364,3.34,2.204,3.159,4.107c-1.32,13.897-8.978,31.323-17.25,33.845C229.533,416.778,228.69,416.884,227.86,416.846z
							"/>
					</g>
					<g>
						<path style="fill:#F4E7CD;" d="M258.218,402.401c-4.449-0.203-8.454-2.135-11.58-5.587
							c-5.945-6.562-7.656-17.757-6.273-25.425c1.683-9.335,8.974-22.926,19.278-22.456c0.599,0.027,1.206,0.103,1.806,0.227
							c1.013,0.208,1.92,0.764,2.584,1.564c0.159-0.178,0.323-0.349,0.492-0.515c1.919-1.876,4.291-2.806,6.858-2.69
							c0.384,0.018,0.771,0.059,1.159,0.125c2.801,0.466,5.173,1.929,6.861,4.23c2.172,2.961,3.13,7.176,2.919,12.866
							c6.377-2.065,14.265-7.603,16.667-16.945c0.441-1.71,1.95-2.804,3.757-2.722c0.402,0.018,0.806,0.096,1.199,0.232
							c2.185,0.757,3.518,3.101,2.971,5.228c-1.884,7.327-6.673,13.796-13.481,18.216c-3.766,2.447-7.937,4.111-12.087,4.825
							c-0.076,0.464-0.368,2.188-0.368,2.188c-3.15,18.774-12.755,26.056-20.694,26.612
							C259.593,402.422,258.897,402.432,258.218,402.401z M260.083,357.117c-4.358-0.199-10.14,7.954-11.673,16.46
							c-1.006,5.579,0.228,13.859,4.035,18.061c1.486,1.642,3.241,2.487,5.363,2.584c0.369,0.017,0.748,0.011,1.138-0.016
							c8.405-0.587,12.737-13.188,13.971-20.542l0.018-0.103c-6.586-1.341-11.046-5.964-11.982-12.479
							c-0.181-1.257-0.167-2.545,0.042-3.839c-0.146-0.015-0.294-0.037-0.442-0.068
							C260.399,357.144,260.242,357.124,260.083,357.117z M271.819,355.702c-0.423-0.019-0.864,0.192-1.309,0.628
							c-1.031,1.008-1.677,2.921-1.471,4.353c0.278,1.929,1.102,4.21,4.995,4.902c0.474-5.823-0.303-8.265-1.053-9.288
							c-0.188-0.256-0.394-0.477-1.018-0.58C271.912,355.709,271.865,355.704,271.819,355.702z"/>
						<path style="fill:#F4E7CD;" d="M258.188,401.817c-4.29-0.195-8.108-2.029-11.136-5.372c-5.805-6.408-7.47-17.376-6.113-24.899
							c1.896-10.516,10.054-23.949,20.445-21.813c1.142,0.235,2.095,0.986,2.637,1.955c0.289-0.369,0.6-0.717,0.931-1.041
							c2.075-2.03,4.757-2.899,7.547-2.426c2.632,0.438,4.862,1.811,6.444,3.97c2.483,3.385,3.05,8.139,2.752,13.367
							c7.323-2.068,15.424-8.097,17.859-17.566c0.47-1.826,2.371-2.782,4.247-2.133c1.876,0.649,3.016,2.655,2.547,4.481
							c-1.852,7.199-6.562,13.56-13.264,17.912c-3.852,2.502-8.135,4.156-12.255,4.808c-0.093,0.585-0.191,1.172-0.291,1.758
							l-0.136,0.795c-3.1,18.478-12.475,25.638-20.213,26.179C259.513,401.838,258.845,401.846,258.188,401.817z M260.053,356.533
							c-4.599-0.21-10.61,7.97-12.218,16.888c-1.032,5.723,0.255,14.239,4.195,18.586c1.874,2.07,4.158,2.983,7.013,2.782
							c8.73-0.61,13.19-13.471,14.45-20.975l0.121-0.712c-6.651-1.117-11.156-5.596-12.083-12.049
							c-0.209-1.453-0.137-2.954,0.181-4.397c-0.353,0.038-0.72,0.024-1.094-0.053C260.432,356.565,260.244,356.542,260.053,356.533
							z M271.789,355.117c-0.581-0.026-1.154,0.233-1.707,0.775c-1.156,1.131-1.854,3.203-1.622,4.819
							c0.293,2.039,1.224,4.827,5.901,5.51c0.068,0.01,0.136,0.019,0.205,0.028c0.359-3.922,0.349-8.255-1.127-10.268
							c-0.302-0.411-0.663-0.712-1.436-0.841C271.932,355.129,271.861,355.121,271.789,355.117z"/>
					</g>
					<g>
						<path style="fill:#E6C11F;" d="M331.075,410.853c-0.97-0.044-1.94-0.226-2.884-0.542c-3.467-1.159-6.24-3.991-7.606-7.772
							c-0.915-2.53-1.591-5.485-1.977-8.632c-0.005,0.009-0.012,0.018-0.018,0.026c-2.196,3.304-7.664,8.869-14.226,8.768
							c-0.128-0.001-0.259-0.005-0.389-0.011c-3.308-0.151-6.302-1.771-8.658-4.685c-3.306-4.085-4.419-10.092-3.402-18.365
							c1.383-11.266,6.86-31.077,7.093-31.915c0.464-1.666,1.966-2.73,3.739-2.649c0.427,0.02,0.854,0.106,1.269,0.257
							c2.176,0.795,3.467,3.159,2.881,5.272c-0.055,0.197-5.548,20.023-6.87,30.792c-0.886,7.211,0.294,10.415,1.441,11.833
							c0.876,1.084,1.567,1.257,2.128,1.282c2.63,0.041,6.255-2.839,8.061-5.554c4.167-6.268,9.089-23.076,9.139-23.245
							c0.475-1.639,1.97-2.686,3.718-2.606c0.355,0.016,0.714,0.079,1.066,0.188c2.099,0.649,3.5,2.794,3.188,4.882
							c-0.307,2.08-1.805,12.305-2.206,16.803c-0.478,5.344,0.165,11.26,1.676,15.438c0.406,1.123,1.065,1.886,1.854,2.15
							c0.185,0.061,0.377,0.097,0.573,0.106c0.683,0.031,1.413-0.255,2.111-0.829c9.614-7.901,14.024-35.993,14.655-48.36
							c0.106-2.088,1.768-3.59,3.863-3.494c0.14,0.006,0.28,0.021,0.423,0.042c1.088,0.159,2.091,0.729,2.823,1.606
							c0.732,0.878,1.105,1.957,1.049,3.04c-0.583,11.462-4.823,43.455-17.282,53.695
							C336.186,410.115,333.685,410.972,331.075,410.853z"/>
						<path style="fill:#E6C11F;" d="M331.046,410.268c-0.909-0.041-1.82-0.21-2.719-0.511c-3.274-1.094-5.898-3.781-7.196-7.371
							c-1.087-3.004-1.813-6.573-2.131-10.286c-0.303,0.529-0.605,1.024-0.906,1.477c-2.138,3.217-7.448,8.635-13.778,8.538
							c-3.289-0.034-6.246-1.589-8.561-4.452c-3.191-3.943-4.258-9.798-3.262-17.899c1.383-11.269,6.844-30.999,7.076-31.835
							c0.505-1.814,2.425-2.73,4.294-2.051c1.866,0.682,2.972,2.705,2.468,4.519c-0.056,0.199-5.562,20.095-6.886,30.872
							c-0.912,7.423,0.357,10.785,1.581,12.299c1.077,1.333,2.002,1.519,2.727,1.529c2.783,0.042,6.525-2.971,8.397-5.786
							c4.203-6.322,9.156-23.218,9.205-23.389c0.501-1.724,2.288-2.633,4.101-2.072c1.806,0.558,3,2.389,2.733,4.184
							c-0.017,0.118-1.768,11.884-2.21,16.836c-0.485,5.426,0.172,11.441,1.711,15.697c0.476,1.316,1.28,2.223,2.265,2.551
							c1.023,0.341,2.164,0.054,3.215-0.81c9.75-8.012,14.209-36.298,14.842-48.741c0.098-1.918,1.751-3.247,3.673-2.96
							c1.931,0.281,3.418,2.065,3.32,3.982c-0.579,11.397-4.779,43.193-17.094,53.315
							C335.885,409.57,333.482,410.379,331.046,410.268z"/>
					</g>
					<g>
						<g>
							<path style="fill:#DF574A;" d="M381.405,365.528c-0.158-0.007-0.319-0.024-0.481-0.049c-1.091-0.177-2.086-0.764-2.805-1.652
								c-0.718-0.889-1.073-1.972-1.002-3.051c0.981-14.53,6.951-31.14,18.788-52.272c22.317-39.837,27.402-67.018,16.003-85.539
								c-4.063-6.602-10.926-10.901-17.911-11.22c-0.593-0.027-1.192-0.025-1.777,0.007c-7.954,0.416-14.143,6.074-16.979,15.522
								c-0.487,1.62-1.98,2.655-3.718,2.575c-0.454-0.021-0.908-0.117-1.348-0.287c-2.161-0.835-3.409-3.221-2.781-5.318
								c3.769-12.548,12.379-20.082,23.625-20.67c0.837-0.043,1.69-0.046,2.537-0.007c9.897,0.451,19.551,6.429,25.194,15.6
								c13.194,21.44,8.228,51.26-15.627,93.845c-11.28,20.138-16.953,35.736-17.854,49.088
								C385.133,364.148,383.471,365.622,381.405,365.528z"/>
							<path style="fill:#DF574A;" d="M381.375,364.944c-0.137-0.006-0.275-0.021-0.414-0.043c-1.93-0.313-3.389-2.118-3.26-4.031
								c0.975-14.447,6.923-30.985,18.721-52.045c22.426-40.033,27.503-67.402,15.976-86.132
								c-4.559-7.408-12.529-11.941-20.263-11.525c-8.188,0.428-14.55,6.219-17.453,15.89c-0.541,1.8-2.485,2.678-4.341,1.961
								c-1.857-0.717-2.924-2.758-2.384-4.558c3.701-12.327,12.139-19.727,23.15-20.302c10.443-0.541,21.109,5.452,27.156,15.28
								c13.065,21.231,8.091,50.862-15.655,93.252c-11.319,20.207-17.014,35.876-17.92,49.315
								C384.569,363.78,383.124,365.023,381.375,364.944z"/>
						</g>
						<g>
							<path style="fill:#DF574A;" d="M381.548,391.898c-0.172-0.008-0.348-0.026-0.525-0.057c-1.089-0.188-2.078-0.784-2.788-1.68
								c-0.711-0.894-1.055-1.981-0.97-3.058l0.071-0.902c0.158-2.024,1.819-3.479,3.86-3.386c0.174,0.008,0.35,0.027,0.529,0.058
								c1.089,0.188,2.078,0.785,2.788,1.68c0.71,0.894,1.055,1.981,0.97,3.058l-0.07,0.902
								C385.253,390.536,383.592,391.991,381.548,391.898z"/>
							<path style="fill:#DF574A;" d="M381.519,391.314c-0.148-0.007-0.299-0.023-0.451-0.049c-1.928-0.334-3.37-2.151-3.221-4.061
								l0.071-0.902c0.149-1.908,1.824-3.188,3.762-2.852c1.928,0.334,3.37,2.151,3.221,4.061l-0.071,0.902
								C384.692,390.171,383.252,391.393,381.519,391.314z"/>
						</g>
					</g>
					<g>
						<path style="fill:#76B3A6;" d="M323.58,252.292c-1.667-0.076-3.348-0.45-4.995-1.111
							c-7.684-3.083-11.792-11.671-12.538-26.234c-0.839,0.887-1.659,1.701-2.448,2.428c-6.178,5.699-12.506,8.573-18.304,8.309
							h-0.001c-3.422-0.156-6.581-1.389-9.392-3.664c-5.123-4.148-7.248-10.48-6.146-18.312c0.873-6.21,3.632-12.027,5.923-15.4
							c2.563-3.769,9.304-9.627,16.488-9.299l0.303,0.017c2.823,0.208,6.851,1.468,10.027,6.292c0.626,0.951,0.866,2.056,0.677,3.11
							c-0.189,1.054-0.785,1.931-1.68,2.47c-0.632,0.381-1.371,0.563-2.136,0.528c-1.415-0.064-2.743-0.839-3.554-2.072
							c-1.177-1.787-2.253-2.096-3.15-2.161l-0.132-0.008c-3.602-0.164-8.169,3.538-9.949,6.16c-1.625,2.391-3.81,6.86-4.622,11.584
							c-0.6,3.496-0.619,8.229,2.706,10.921c1.25,1.012,2.694,1.562,4.29,1.635c5.085,0.232,10.656-4.377,12.815-6.369
							c2.496-2.304,5.336-5.616,8.445-9.847c0.24-3.968,0.599-7.745,0.888-10.788c0.15-1.561,0.279-2.939,0.369-4.077
							c1.03-13.298,2.947-28.902,9.351-43.801c2.067-4.811,7.699-16.211,15.303-18.159c0.945-0.241,1.908-0.341,2.861-0.298
							c1.794,0.082,3.536,0.659,5.179,1.715c9.603,6.179,3.854,22.525-1.306,34.283c-7.178,16.359-16.356,33.006-24.569,44.567
							c-0.732,16.862,1.581,26.856,6.693,28.907c0.695,0.279,1.421,0.438,2.156,0.471c5.708,0.26,12.604-6.711,20.5-20.719
							c0.672-1.192,1.974-1.893,3.402-1.828c0.737,0.034,1.471,0.269,2.125,0.679c0.962,0.604,1.667,1.527,1.985,2.599
							c0.317,1.072,0.21,2.164-0.304,3.075C346.625,235.375,336.757,252.891,323.58,252.292L323.58,252.292z M335.386,142.323
							c-0.165-0.008-0.345,0.014-0.55,0.067c-3.421,0.876-7.825,7.891-10.467,14.039c-5.809,13.514-7.677,27.916-8.679,40.356
							c5.586-9.391,10.958-19.877,15.613-30.483c4.423-10.081,7.85-21.789,4.921-23.673
							C335.916,142.429,335.657,142.335,335.386,142.323z"/>
						<path style="fill:#76B3A6;" d="M323.55,251.708c-1.559-0.071-3.158-0.41-4.796-1.067c-9.05-3.631-11.774-15.167-12.189-27.155
							c-1.148,1.269-2.277,2.422-3.385,3.443c-9.709,8.957-19.524,10.655-26.942,4.651c-4.935-3.997-6.977-10.13-5.907-17.736
							c0.86-6.119,3.58-11.851,5.838-15.176c2.567-3.777,9.287-9.548,16.314-9.058c2.678,0.197,6.506,1.397,9.533,5.997
							c1.11,1.686,0.726,3.827-0.858,4.783c-1.587,0.954-3.769,0.363-4.877-1.324c-1.343-2.039-2.651-2.384-3.642-2.457
							c-3.859-0.282-8.67,3.591-10.561,6.376c-3.78,5.563-8.178,18.111-1.764,23.305c6.129,4.96,14.531-1.655,17.862-4.728
							c2.589-2.389,5.51-5.826,8.601-10.043c0.239-3.999,0.594-7.747,0.897-10.929c0.15-1.565,0.28-2.946,0.369-4.087
							c1.026-13.254,2.935-28.801,9.309-43.628c2.038-4.742,7.574-15.974,14.957-17.865c2.573-0.656,5.185-0.197,7.565,1.333
							c9.19,5.913,3.51,21.963-1.562,33.522c-6.461,14.726-15.628,31.992-24.607,44.602c-0.539,12.112,0.154,26.904,7.098,29.69
							c6.392,2.565,14.243-4.322,23.341-20.465c0.909-1.615,3.03-2.057,4.737-0.985c1.706,1.071,2.352,3.249,1.441,4.864
							C346.319,234.681,336.393,252.292,323.55,251.708z M335.356,141.738c-0.227-0.01-0.46,0.018-0.715,0.083
							c-3.611,0.924-8.032,7.865-10.812,14.333c-6.001,13.962-7.816,28.839-8.802,41.551c-0.037,0.486-0.082,1.014-0.133,1.58
							c5.86-9.617,11.824-21.034,16.946-32.707c0.975-2.223,9.257-21.48,4.665-24.434
							C336.107,141.888,335.743,141.756,335.356,141.738z"/>
					</g>
				</g>
			</g>
			<g>
				<g>
					
						<path style="fill:none;stroke:#FFFFFF;stroke-width:2;stroke-linecap:round;stroke-linejoin:round;stroke-miterlimit:10;stroke-dasharray:59,10,0;" d="
						M252.741,188.883c-1.797,7.786-13.217,37.381-4.941,43.045c9.263,6.339,19.544-3.463,24.106-15.763"/>
					
						<path style="fill:none;stroke:#FFFFFF;stroke-width:2;stroke-linecap:round;stroke-linejoin:round;stroke-miterlimit:10;stroke-dasharray:59,10,0;" d="
						M297.874,195.876c-6.023-9.15-16.702-1.403-20.026,3.49c-4.375,6.44-9.541,21.068-0.847,28.108
						c7.714,6.247,17.148,0.158,22.402-4.69c10.602-9.783,24.632-33.77,34.389-56.005c2.453-5.59,10.627-24.168,3.122-28.996
						c-8.158-5.248-15.905,11.328-17.599,15.271c-5.835,13.576-7.909,27.798-9.054,42.59c-0.861,11.122-5.738,44.686,8.243,50.295
						c12.14,4.871,23.06-13.967,27.455-21.767"/>
					
						<line style="fill:none;stroke:#FFFFFF;stroke-width:2;stroke-linecap:round;stroke-linejoin:round;stroke-miterlimit:10;stroke-dasharray:59,10,0;" x1="256.863" y1="175.017" x2="256.631" y2="175.747"/>
					
						<line style="fill:none;stroke:#FFFFFF;stroke-width:2;stroke-linecap:round;stroke-linejoin:round;stroke-miterlimit:10;stroke-dasharray:59,10,0;" x1="180.003" y1="171.678" x2="172.88" y2="240.817"/>
					
						<path style="fill:none;stroke:#FFFFFF;stroke-width:2;stroke-linecap:round;stroke-linejoin:round;stroke-miterlimit:10;stroke-dasharray:59,10,0;" d="
						M120.541,185.001c12.92-21.342,38.397-39.322,64.774-41.626c36.772-3.211,53.915,31.87,45.987,59.713
						c-8.788,30.865-34.342,56.089-67.289,66.421c-24.176,7.582-36.734-14.222-21.936-30.297
						c13.664-14.843,35.449-23.06,57.803-21.805"/>
				</g>
				<g>
					
						<path style="fill:none;stroke:#FFFFFF;stroke-width:2;stroke-linecap:round;stroke-linejoin:round;stroke-miterlimit:10;stroke-dasharray:59,10,0;" d="
						M224.225,254.088c-4.103,8.857-6.063,21.38-2.553,27.915c5.317,9.897,15.758,10.259,23.871,6.343
						c11.822-5.705,19.017-29.049,13.184-30.142c0,0-5.424,23.066-7.144,30.012c-2.162,8.733-4.04,17.569-6.542,26.204
						c-2.235,7.715-8.434,19.641-18.165,21.301c-5.666,0.966-10.678-4.404-10.566-9.561c0.241-11.024,18.686-16.446,26.723-21.097
						c12.375-7.162,26.482-16.777,36.213-31.237"/>
					
						<path style="fill:none;stroke:#FFFFFF;stroke-width:2;stroke-linecap:round;stroke-linejoin:round;stroke-miterlimit:10;stroke-dasharray:59,10,0;" d="
						M284.315,268.076c-8.62,7.291-14.544,26.457-9.108,34.52c7.612,11.291,18.554,7.207,24.892-0.138
						c4.732-5.485,13.884-26.728,7.461-33.741c-3.985-4.35-11.118-0.412-11.57,4.161c-0.472,4.778,4.356,8.398,9.374,9.243
						c7.886,1.328,14.294-3.517,17.568-7.193c3.274-3.675,6.764-11.301,6.764-11.301c-4.832,14.004-9.905,29.844-7.499,39.853
						c1.901,7.909,9.098,11.413,16.09,8.989c7.158-2.481,11.36-7.924,15.111-18.732c5.677-16.355,7.939-24.762,7.939-24.761
						c-3.891,13.097-9.815,31.014,1.607,33.542c12.327,2.728,18.704-10.981,18.704-10.981"/>
				</g>
				
					<path style="fill:none;stroke:#FFFFFF;stroke-width:2;stroke-linecap:round;stroke-linejoin:round;stroke-miterlimit:10;stroke-dasharray:59,10,0;" d="
					M124.338,377.02c5.17-5.069,12.144-6.413,18.458-3.517c6.314,2.895,10.641,8.994,13.213,15.207
					c2.572,6.212,3.742,12.757,5.909,19.077c2.167,6.32,5.596,12.704,11.332,16.654c5.774,3.976,13.432,4.881,19.54,2.568
					c6.108-2.314,10.553-7.678,11.919-13.925"/>
				
					<path style="fill:none;stroke:#FFFFFF;stroke-width:2;stroke-linecap:round;stroke-linejoin:round;stroke-miterlimit:10;stroke-dasharray:59,10,0;" d="
					M68.159,366.009c-0.262-6.133,2.656-12.475,6.521-17.66c14.078-18.886,51.632-21.641,70.713-31.941
					c8.371-4.519,21.309-16.931,12.158-22.109c-4.093-2.316-12.596,0.683-17.799,8.375c-10.182,15.05-6.404,29.652-13.646,64.59
					c-8.969,43.267-13.341,66.099-22.158,71.732c-11.92,7.616-23.92-3.204-24.219-14.537c-0.402-15.269,14.047-27.197,24.714-37.384
					c14.097-13.463,29.472-25.664,45.566-36.869c19.744-13.746,40.029-32.909,45.914-47.765"/>
				
					<path style="fill:none;stroke:#FFFFFF;stroke-width:2;stroke-linecap:round;stroke-linejoin:round;stroke-miterlimit:10;stroke-dasharray:59,10,0;" d="
					M190.078,350.789c0,0-3.356,31.43-7.884,47.432c3.032-10.716,5.053-17.365,10.649-26.938
					c4.818-8.242,16.695-28.27,30.599-20.092c8.633,5.077,4.092,17.568,2.631,26.719c-1.843,11.543-5.363,29.779-2.192,32.82
					c6.406,6.145,17.377-13.355,18.974-30.173"/>
				
					<path style="fill:none;stroke:#FFFFFF;stroke-width:2;stroke-linecap:round;stroke-linejoin:round;stroke-miterlimit:10;stroke-dasharray:59,10,0;" d="
					M259.723,351.706c-7.65-1.572-14.84,9.474-16.614,19.316c-1.795,9.956,2.313,26.709,15.229,25.807
					c10.466-0.731,15.747-14.139,17.332-23.578c0.923-5.499,4.107-21.567-4.696-23.032c-4.723-0.786-7.889,4.797-7.256,9.202
					c2.364,16.448,32.626,9.006,37.956-11.718"/>
				
					<path style="fill:none;stroke:#FFFFFF;stroke-width:2;stroke-linecap:round;stroke-linejoin:round;stroke-miterlimit:10;stroke-dasharray:59,10,0;" d="
					M301.674,347.702c0,0-5.612,20.201-6.982,31.354c-0.549,4.474-0.846,11.059,2.421,15.1c5.498,6.797,13.609,0.523,16.732-4.173
					c4.514-6.789,9.603-24.247,9.603-24.247s-1.777,11.923-2.234,17.032c-0.473,5.31,0.025,12.009,1.92,17.249
					c1.871,5.174,7.164,6.888,11.129,3.629c11.557-9.498,15.459-41.002,15.969-51.027"/>
				<g>
					
						<path style="fill:none;stroke:#FFFFFF;stroke-width:2;stroke-linecap:round;stroke-linejoin:round;stroke-miterlimit:10;stroke-dasharray:59,10,0;" d="
						M370.042,224.298c7.396-24.633,33.294-22.11,44.011-4.694c12.339,20.051,7.29,48.446-15.815,89.693
						c-10.491,18.728-17.289,35.382-18.32,50.681"/>
					
						<line style="fill:none;stroke:#FFFFFF;stroke-width:2;stroke-linecap:round;stroke-linejoin:round;stroke-miterlimit:10;stroke-dasharray:59,10,0;" x1="380.132" y1="385.445" x2="380.061" y2="386.347"/>
				</g>
			</g>
		</g>
		<g>
			<circle style="fill:#E6C11F;" cx="272.467" cy="100.156" r="19.825"/>
			<path style="fill:#76B3A6;" d="M283.877,132.751c-0.125,0-0.254-0.012-0.381-0.035c-1.123-0.21-1.864-1.29-1.654-2.413
				c0.902-4.836,3.326-9.308,7.011-12.931c5.62-5.525,8.122-13.442,6.696-21.177c-1.19-6.457-4.878-11.983-10.387-15.561
				c-5.505-3.576-12.066-4.695-18.472-3.151c-12.033,2.899-19.831,14.741-17.755,26.961c0.853,5.022,3.234,9.536,6.884,13.057
				c3.623,3.496,6.008,7.926,6.896,12.812c0.204,1.124-0.541,2.201-1.665,2.405c-1.131,0.205-2.201-0.542-2.405-1.665
				c-0.732-4.028-2.703-7.685-5.698-10.575c-4.289-4.137-7.087-9.442-8.09-15.341c-2.44-14.356,6.725-28.27,20.863-31.676
				c7.524-1.813,15.229-0.496,21.695,3.704c6.471,4.203,10.804,10.695,12.202,18.28c1.676,9.088-1.263,18.388-7.864,24.877
				c-3.078,3.026-5.099,6.74-5.846,10.739C285.723,132.056,284.854,132.751,283.877,132.751z"/>
			<path style="fill:#252654;" d="M272.277,160.857c-2.902,0-5.53-1.717-6.695-4.376l-3.045-6.947
				c-0.458-1.046,0.018-2.266,1.065-2.725c1.043-0.458,2.266,0.018,2.725,1.065l3.044,6.946c0.506,1.154,1.647,1.9,2.907,1.9
				c1.26,0,2.402-0.746,2.907-1.9l3.045-6.947c0.46-1.046,1.684-1.522,2.725-1.064c1.046,0.459,1.523,1.679,1.065,2.725
				l-3.045,6.946C277.809,159.139,275.18,160.857,272.277,160.857z"/>
			<path style="fill:#E6C11F;" d="M306.365,89.384c-1.046,0.127-2.036-0.56-2.268-1.609c-0.245-1.116,0.46-2.219,1.576-2.465
				l6.392-1.405c1.131-0.25,2.22,0.461,2.465,1.576c0.245,1.116-0.46,2.219-1.576,2.465l-6.392,1.405
				C306.496,89.366,306.43,89.377,306.365,89.384z"/>
			<path style="fill:#E6C11F;" d="M294.749,73.63c-0.558,0.082-1.146-0.063-1.615-0.449c-0.882-0.726-1.009-2.029-0.283-2.912
				l3.224-3.919c0.727-0.883,2.03-1.008,2.912-0.284c0.882,0.726,1.009,2.029,0.283,2.912l-3.224,3.919
				C295.706,73.311,295.239,73.558,294.749,73.63z"/>
			<path style="fill:#E6C11F;" d="M237.669,88.971c-0.083-0.013-0.166-0.031-0.249-0.055l-6.548-1.868
				c-1.099-0.313-1.735-1.458-1.422-2.556c0.313-1.099,1.459-1.739,2.556-1.422l6.548,1.868c1.099,0.313,1.735,1.458,1.422,2.556
				C239.686,88.51,238.687,89.131,237.669,88.971z"/>
			<path style="fill:#E6C11F;" d="M249.598,73.069c-0.531-0.038-1.046-0.279-1.42-0.714l-3.316-3.853
				c-0.745-0.866-0.647-2.172,0.219-2.917c0.866-0.745,2.172-0.647,2.917,0.219l3.316,3.853c0.745,0.866,0.648,2.172-0.218,2.917
				C250.664,72.945,250.124,73.107,249.598,73.069z"/>
			<path style="fill:#E6C11F;" d="M234.797,110.562c-0.912,0-1.747-0.607-1.996-1.531c-0.298-1.103,0.355-2.238,1.459-2.536
				l2.517-0.679c1.101-0.295,2.238,0.355,2.536,1.459c0.297,1.103-0.355,2.238-1.459,2.536l-2.517,0.679
				C235.156,110.538,234.975,110.562,234.797,110.562z"/>
			<path style="fill:#E6C11F;" d="M309.937,110.166c-0.072,0-0.145-0.004-0.218-0.011l-2.695-0.283
				c-1.136-0.12-1.96-1.138-1.841-2.273c0.119-1.136,1.141-1.959,2.273-1.841l2.695,0.283c1.136,0.12,1.96,1.138,1.841,2.273
				C311.88,109.376,310.982,110.166,309.937,110.166z"/>
			<g>
				<path style="fill:#E1564F;" d="M257.618,133.66h29.319c1.142,0,2.068-0.926,2.068-2.068c0-1.142-0.926-2.068-2.068-2.068
					h-12.221l8.025-23.344c0.371-1.081-0.204-2.257-1.284-2.628c-1.082-0.373-2.257,0.202-2.629,1.283l-6.552,19.059l-6.552-19.059
					c-0.372-1.08-1.547-1.655-2.629-1.283c-1.08,0.371-1.654,1.548-1.284,2.628l8.025,23.344h-12.22
					c-1.142,0-2.068,0.926-2.068,2.068C255.55,132.734,256.476,133.66,257.618,133.66z"/>
				<path style="fill:#5478B8;" d="M286.938,137.792h-29.319c-1.142,0-2.068,0.926-2.068,2.068s0.926,2.068,2.068,2.068h29.319
					c1.142,0,2.068-0.926,2.068-2.068S288.08,137.792,286.938,137.792z"/>
				<path style="fill:#252654;" d="M286.938,146.06h-29.319c-1.142,0-2.068,0.926-2.068,2.068s0.926,2.068,2.068,2.068h29.319
					c1.142,0,2.068-0.926,2.068-2.068S288.08,146.06,286.938,146.06z"/>
			</g>
			<path style="fill:#E6C11F;" d="M272.077,67.763c-1.142,0-2.068-0.926-2.068-2.069v-7.457c0-1.142,0.926-2.068,2.068-2.068
				s2.068,0.926,2.068,2.068v7.457C274.146,66.837,273.22,67.763,272.077,67.763z"/>
			<path style="fill:#E6C11F;" d="M241.206,129.489c-0.601,0-1.198-0.261-1.606-0.764c-0.721-0.886-0.585-2.189,0.301-2.909
				l4.073-3.308c0.885-0.721,2.19-0.586,2.91,0.301c0.72,0.886,0.585,2.189-0.302,2.909l-4.073,3.308
				C242.125,129.338,241.664,129.489,241.206,129.489z"/>
			<g>
				<path style="fill:#E6C11F;" d="M302.452,128.995c-0.442,0-0.888-0.141-1.265-0.432l-3.863-2.989
					c-0.904-0.699-1.07-1.998-0.371-2.902c0.7-0.903,2-1.069,2.902-0.37l3.863,2.989c0.904,0.699,1.069,1.998,0.371,2.902
					C303.681,128.72,303.07,128.995,302.452,128.995z"/>
			</g>
		</g>
	</g>
</g>
</svg>
